<svg xmlns="http://www.w3.org/2000/svg" viewBox="0 0 960 340" role="img" aria-labelledby="m1-trail-title">
  <title id="m1-trail-title">Mia's Module 1 artifact trail: Founding Hypothesis to smoke-test page to tracking to a 6.5% demand signal to 6 paying customers</title>
  <defs>
    <style>
      .h      { font-family: "Caveat", "Patrick Hand", "Comic Sans MS", cursive; font-size: 25px; fill: #1a1a1a; font-weight: 700; }
      .foot   { font-family: "Caveat", "Patrick Hand", "Comic Sans MS", cursive; font-size: 16px; fill: #666; font-style: italic; }
      .chip   { font-family: "Caveat", "Patrick Hand", "Comic Sans MS", cursive; font-size: 15px; fill: #ffffff; font-weight: 700; }
      .title  { font-family: "Caveat", "Patrick Hand", "Comic Sans MS", cursive; font-size: 18px; fill: #1a1a1a; font-weight: 700; }
      .big    { font-family: "Caveat", "Patrick Hand", "Comic Sans MS", cursive; font-size: 25px; fill: #cc342d; font-weight: 700; }
      .gbig   { font-family: "Caveat", "Patrick Hand", "Comic Sans MS", cursive; font-size: 25px; fill: #2e7d32; font-weight: 700; }
      .note   { font-family: "Caveat", "Patrick Hand", "Comic Sans MS", cursive; font-size: 13px; fill: #555; }
      .url    { font-family: "Courier New", monospace; font-size: 11px; fill: #0277bd; }
      .card   { fill: #fffdf8; stroke: #1a1a1a; stroke-width: 2; }
      .pay    { fill: #fbe9ff; stroke: #a855f7; stroke-width: 2.5; }
      .chipbg { fill: #cc342d; }
    </style>
    <marker id="arw1" markerWidth="9" markerHeight="9" refX="6" refY="3" orient="auto">
      <path d="M0,0 L6,3 L0,6" fill="none" stroke="#999" stroke-width="1.6"/>
    </marker>
  </defs>

  <text x="480" y="38" class="h" text-anchor="middle">What Mia produced in Module 1</text>

  <!-- Card 1: Hypothesis -->
  <g transform="rotate(-0.4 98.5 182)">
    <rect x="16" y="90" width="165" height="185" rx="12" class="card"/>
    <rect x="65.5" y="100" width="66" height="26" rx="13" class="chipbg"/>
    <text x="98.5" y="118" class="chip" text-anchor="middle">1.1</text>
    <text x="98.5" y="152" class="title" text-anchor="middle">Founding</text>
    <text x="98.5" y="173" class="title" text-anchor="middle">Hypothesis</text>
    <text x="98.5" y="216" class="big" text-anchor="middle">15 / 20</text>
    <text x="98.5" y="252" class="note" text-anchor="middle">one soft blank flagged</text>
  </g>

  <!-- Card 2: Smoke-test page -->
  <g transform="rotate(0.4 288.5 182)">
    <rect x="206" y="90" width="165" height="185" rx="12" class="card"/>
    <rect x="255.5" y="100" width="66" height="26" rx="13" class="chipbg"/>
    <text x="288.5" y="118" class="chip" text-anchor="middle">1.2</text>
    <text x="288.5" y="152" class="title" text-anchor="middle">Smoke-test</text>
    <text x="288.5" y="173" class="title" text-anchor="middle">page live</text>
    <text x="288.5" y="212" class="url" text-anchor="middle">tutormatch.mixo.io</text>
    <text x="288.5" y="250" class="note" text-anchor="middle">passed 3-second test</text>
  </g>

  <!-- Card 3: Tracking -->
  <g transform="rotate(-0.3 478.5 182)">
    <rect x="396" y="90" width="165" height="185" rx="12" class="card"/>
    <rect x="445.5" y="100" width="66" height="26" rx="13" class="chipbg"/>
    <text x="478.5" y="118" class="chip" text-anchor="middle">1.3</text>
    <text x="478.5" y="152" class="title" text-anchor="middle">Tracking</text>
    <text x="478.5" y="173" class="title" text-anchor="middle">wired</text>
    <text x="478.5" y="214" class="note" text-anchor="middle">Clarity · GA4 · Pixel</text>
    <text x="478.5" y="250" class="note" text-anchor="middle">who is visiting, verified</text>
  </g>

  <!-- Card 4: Smoke test run -->
  <g transform="rotate(0.3 668.5 182)">
    <rect x="586" y="90" width="165" height="185" rx="12" class="card"/>
    <rect x="635.5" y="100" width="66" height="26" rx="13" class="chipbg"/>
    <text x="668.5" y="118" class="chip" text-anchor="middle">1.4</text>
    <text x="668.5" y="152" class="title" text-anchor="middle">Smoke test</text>
    <text x="668.5" y="173" class="title" text-anchor="middle">run</text>
    <text x="668.5" y="216" class="big" text-anchor="middle">6.5%</text>
    <text x="668.5" y="252" class="note" text-anchor="middle">300 visits · Promising</text>
  </g>

  <!-- Card 5: Price test (payoff) -->
  <g transform="rotate(-0.4 858.5 182)">
    <rect x="776" y="90" width="165" height="185" rx="12" class="pay"/>
    <rect x="825.5" y="100" width="66" height="26" rx="13" class="chipbg"/>
    <text x="858.5" y="118" class="chip" text-anchor="middle">1.5</text>
    <text x="858.5" y="152" class="title" text-anchor="middle">Price test</text>
    <text x="858.5" y="196" class="gbig" text-anchor="middle">6 buyers</text>
    <text x="858.5" y="230" class="note" text-anchor="middle">$99 each</text>
    <text x="858.5" y="250" class="note" text-anchor="middle">$594 before product</text>
  </g>

  <!-- Arrows -->
  <line x1="184" y1="182" x2="203" y2="182" stroke="#999" stroke-width="1.6" marker-end="url(#arw1)"/>
  <line x1="374" y1="182" x2="393" y2="182" stroke="#999" stroke-width="1.6" marker-end="url(#arw1)"/>
  <line x1="564" y1="182" x2="583" y2="182" stroke="#999" stroke-width="1.6" marker-end="url(#arw1)"/>
  <line x1="754" y1="182" x2="773" y2="182" stroke="#999" stroke-width="1.6" marker-end="url(#arw1)"/>

  <text x="480" y="312" class="foot" text-anchor="middle">Five outputs, zero product code - each one filed in her Founder OS folder.</text>
</svg>
