<svg fill="url(#a)" viewBox="59.392 70.656 388.096 384" role="img" aria-label="Ruby" xmlns="http://www.w3.org/2000/svg">
    <linearGradient y2="1" x2=".2" id="a">
        <stop stop-color="#fff" offset=".2"/>
        <stop stop-color="#d53" offset=".4"/>
        <stop stop-color="#b10" offset=".6"/>
    </linearGradient>
    <linearGradient y1="1" id="b">
        <stop stop-color="#fff" offset="0"/>
        <stop stop-color="#d32" offset=".1"/>
        <stop stop-color="#800" offset=".2"/>
        <stop stop-color="#d20" offset="1"/>
    </linearGradient>
    <path d="M154 430L257 413V248" fill="#810"/>
    <path d="M411 413L247 400L328 339L306 187L347 87" fill="#b10"/>
    <path d="M81 360q2 72 73 70c129-8 266-167 276-269q6-68-55-78l-54 30s-11 194-218 204" fill="#900"/>
    <path d="M81 360l5-97 19 54"/>
    <path d="M105 317l49 113l40-133"/>
    <path d="M194 297l100-94l34 137"/>
    <path d="M294 203l27-90l101 82"/>
    <g fill="url(#b)">
        <path d="M155 157a62 139 45 101-1.02"/>
        <path d="M375 83h-96l42 30L300 83"/>
    </g>
</svg>