<svg xmlns="http://www.w3.org/2000/svg" viewBox="0 0 960 300" role="img" aria-labelledby="sprint-title">
  <title id="sprint-title">The six-step founding-hypothesis sprint, run alone in about 90 minutes</title>
  <desc>Six numbered step cards laid out as a snake - three across the top left to right, three across the bottom right to left - joined by arrows. Step 1 The Basics: five candidates per column. Step 2 Differentiator: faster, easier, or cheaper. Step 3 Three Approaches: one sentence each. Step 4 Magic Lenses: score 1 to 5 on four lenses. Step 5 Write It Down: the one Mad Libs sentence. Step 6 Design the Test: smoke test plus interviews.</desc>
  <defs>
    <style>
      .h    { font-family: "Caveat", "Patrick Hand", "Comic Sans MS", cursive; }
      .title{ font-size: 28px; font-weight: 700; fill: #1a1a1a; }
      .sub  { font-size: 18px; fill: #666; font-style: italic; }
      .step { font-size: 22px; font-weight: 700; fill: #1a1a1a; }
      .desc { font-size: 17px; fill: #555; }
      .num  { font-size: 16px; font-weight: 700; fill: #fff; }
      .card { fill: #faf7f2; stroke: #555; stroke-width: 2; stroke-linejoin: round; }
      .numdot { fill: #cc342d; }
      .arrow  { stroke: #333; stroke-width: 2.25; fill: none; }
    </style>
    <marker id="ts-ah" viewBox="0 0 10 10" refX="8" refY="5" markerWidth="7" markerHeight="7" orient="auto-start-reverse">
      <path d="M 0 1 L 8 5 L 0 9 z" fill="#333"/>
    </marker>
  </defs>

  <text x="480" y="32" text-anchor="middle" class="h title">The 6-step founding-hypothesis sprint</text>
  <text x="480" y="56" text-anchor="middle" class="h sub">One notebook, a kitchen timer, about 90 minutes - run it alone.</text>

  <!-- Row 1 (left to right): 1, 2, 3   x = 40, 340, 640 ; y = 72 -->
  <g transform="rotate(-0.4 180 122)">
    <rect x="40" y="72" width="280" height="100" rx="12" class="card"/>
    <circle cx="70" cy="102" r="14" class="numdot"/>
    <text x="70" y="107" text-anchor="middle" class="h num">1</text>
    <text x="98" y="112" class="h step">The Basics</text>
    <text x="98" y="142" class="h desc">five candidates per column</text>
  </g>
  <g transform="rotate(0.4 480 122)">
    <rect x="340" y="72" width="280" height="100" rx="12" class="card"/>
    <circle cx="370" cy="102" r="14" class="numdot"/>
    <text x="370" y="107" text-anchor="middle" class="h num">2</text>
    <text x="398" y="112" class="h step">Differentiator</text>
    <text x="398" y="142" class="h desc">faster, easier, or cheaper</text>
  </g>
  <g transform="rotate(-0.4 780 122)">
    <rect x="640" y="72" width="280" height="100" rx="12" class="card"/>
    <circle cx="670" cy="102" r="14" class="numdot"/>
    <text x="670" y="107" text-anchor="middle" class="h num">3</text>
    <text x="698" y="112" class="h step">Three Approaches</text>
    <text x="698" y="142" class="h desc">one sentence each</text>
  </g>

  <!-- Row 2 (left to right): 4, 5, 6   x = 40, 340, 640 ; y = 196 -->
  <g transform="rotate(0.4 180 246)">
    <rect x="40" y="196" width="280" height="100" rx="12" class="card"/>
    <circle cx="70" cy="226" r="14" class="numdot"/>
    <text x="70" y="231" text-anchor="middle" class="h num">4</text>
    <text x="98" y="236" class="h step">Magic Lenses</text>
    <text x="98" y="266" class="h desc">score 1-5 on four lenses</text>
  </g>
  <g transform="rotate(-0.4 480 246)">
    <rect x="340" y="196" width="280" height="100" rx="12" class="card"/>
    <circle cx="370" cy="226" r="14" class="numdot"/>
    <text x="370" y="231" text-anchor="middle" class="h num">5</text>
    <text x="398" y="236" class="h step">Write It Down</text>
    <text x="398" y="266" class="h desc">the one Mad Libs sentence</text>
  </g>
  <g transform="rotate(0.4 780 246)">
    <rect x="640" y="196" width="280" height="100" rx="12" class="card"/>
    <circle cx="670" cy="226" r="14" class="numdot"/>
    <text x="670" y="231" text-anchor="middle" class="h num">6</text>
    <text x="698" y="236" class="h step">Design the Test</text>
    <text x="698" y="266" class="h desc">smoke test + interviews</text>
  </g>

  <!-- Arrows: row 1 rightward -->
  <path d="M 322 122 L 338 122" class="arrow" marker-end="url(#ts-ah)"/>
  <path d="M 622 122 L 638 122" class="arrow" marker-end="url(#ts-ah)"/>
  <!-- Connector: drop from step 3 (top-right) across to step 4 (bottom-left) -->
  <path d="M 780 174 L 780 184 L 180 184 L 180 194" class="arrow" marker-end="url(#ts-ah)"/>
  <!-- Row 2 rightward -->
  <path d="M 322 246 L 338 246" class="arrow" marker-end="url(#ts-ah)"/>
  <path d="M 622 246 L 638 246" class="arrow" marker-end="url(#ts-ah)"/>
</svg>
