<svg xmlns="http://www.w3.org/2000/svg" viewBox="0 0 1000 620" role="img" aria-labelledby="catch-lie-title">
  <title id="catch-lie-title">One Loom for a small full-stack team versus five Looms for a microservice-detached team</title>
  <defs>
    <style>
      .panel-title    { font-family: "Caveat", "Patrick Hand", cursive; font-size: 26px; fill: #1a1a1a; font-weight: 700; }
      .label          { font-family: "Caveat", "Patrick Hand", cursive; font-size: 19px; fill: #1a1a1a; font-weight: 600; }
      .small          { font-family: "Caveat", "Patrick Hand", cursive; font-size: 15px; fill: #444; }
      .note           { font-family: "Caveat", "Patrick Hand", cursive; font-size: 16px; fill: #666; font-style: italic; }
      .url            { font-family: "Courier New", monospace; font-size: 13px; fill: #0277bd; }
      .url-bad        { font-family: "Courier New", monospace; font-size: 12px; fill: #cc342d; }
      .ok-panel       { fill: #f0f9f0; stroke: #2e7d32; stroke-width: 2.5; stroke-linejoin: round; }
      .bad-panel      { fill: #fff5f5; stroke: #cc342d; stroke-width: 2.5; stroke-linejoin: round; }
      .loom-thumb     { fill: #ffffff; stroke: #444; stroke-width: 1.8; }
      .loom-thumb-bad { fill: #ffffff; stroke: #cc342d; stroke-width: 1.8; }
      .play-tri       { fill: #cc342d; }
      .arrow-good     { stroke: #2e7d32; stroke-width: 2.5; fill: none; marker-end: url(#arrow-green); }
      .arrow-bad      { stroke: #cc342d; stroke-width: 2; fill: none; marker-end: url(#arrow-red); stroke-dasharray: 5 4; }
    </style>
    <marker id="arrow-green" viewBox="0 0 10 10" refX="8" refY="5" markerWidth="7" markerHeight="7" orient="auto-start-reverse">
      <path d="M 0 0 L 10 5 L 0 10 z" fill="#2e7d32"/>
    </marker>
    <marker id="arrow-red" viewBox="0 0 10 10" refX="8" refY="5" markerWidth="7" markerHeight="7" orient="auto-start-reverse">
      <path d="M 0 0 L 10 5 L 0 10 z" fill="#cc342d"/>
    </marker>
  </defs>

  <!-- TOP PANEL: full-stack -->
  <rect x="30" y="20" width="940" height="260" rx="14" class="ok-panel"/>
  <text x="500" y="55" text-anchor="middle" class="panel-title">SMALL FULL-STACK TEAM · ONE LOOM</text>

  <!-- Single Loom thumbnail -->
  <g transform="translate(80, 80)">
    <rect x="0" y="0" width="180" height="120" rx="8" class="loom-thumb"/>
    <!-- thumbnail header -->
    <rect x="0" y="0" width="180" height="20" rx="8" fill="#625df5"/>
    <text x="10" y="14" font-family="Caveat, Patrick Hand, cursive" font-size="13" fill="#ffffff" font-weight="700">Loom · 9:42</text>
    <!-- play triangle -->
    <circle cx="90" cy="70" r="22" fill="#ffffff" stroke="#625df5" stroke-width="2"/>
    <polygon points="83,60 83,80 102,70" class="play-tri"/>
    <!-- bottom label -->
    <text x="90" y="110" text-anchor="middle" class="small">checkout flow · v1</text>
  </g>

  <!-- Arrow tracing the user journey on one URL -->
  <text x="305" y="82" class="label">staging.acme.app</text>
  <text x="305" y="102" class="url">/signup → /checkout → /receipt</text>

  <!-- journey arrow over single URL -->
  <g transform="translate(305, 140)">
    <line x1="0" y1="0" x2="600" y2="0" stroke="#2e7d32" stroke-width="3"/>
    <!-- waypoints -->
    <circle cx="20" cy="0" r="8" fill="#2e7d32"/>
    <text x="20" y="-15" text-anchor="middle" class="small">sign up</text>
    <text x="20" y="22" text-anchor="middle" class="small">user enters</text>

    <circle cx="200" cy="0" r="8" fill="#2e7d32"/>
    <text x="200" y="-15" text-anchor="middle" class="small">add to cart</text>
    <text x="200" y="22" text-anchor="middle" class="small">click button</text>

    <circle cx="400" cy="0" r="8" fill="#2e7d32"/>
    <text x="400" y="-15" text-anchor="middle" class="small">checkout</text>
    <text x="400" y="22" text-anchor="middle" class="small">$1 stripe charge</text>

    <polygon points="588,-7 588,7 600,0" fill="#2e7d32"/>
    <circle cx="580" cy="0" r="8" fill="#2e7d32"/>
    <text x="580" y="-15" text-anchor="middle" class="small">receipt</text>
    <text x="580" y="22" text-anchor="middle" class="small">email sent ✓</text>
  </g>

  <text x="500" y="240" text-anchor="middle" class="note">one developer narrates end-to-end · 90 seconds · founder clicks along</text>

  <!-- BOTTOM PANEL: microservice -->
  <rect x="30" y="310" width="940" height="290" rx="14" class="bad-panel"/>
  <text x="500" y="345" text-anchor="middle" class="panel-title">MICROSERVICE-DETACHED TEAM · FIVE LOOMS</text>

  <!-- 5 Loom thumbnails across different subdomains -->
  <g transform="translate(70, 375)">
    <!-- Loom 1: order service -->
    <g>
      <rect x="0" y="0" width="150" height="100" rx="6" class="loom-thumb-bad"/>
      <rect x="0" y="0" width="150" height="18" rx="6" fill="#625df5"/>
      <text x="6" y="13" font-family="Caveat, Patrick Hand, cursive" font-size="11" fill="#ffffff" font-weight="700">Loom · 6:18</text>
      <circle cx="75" cy="55" r="16" fill="#ffffff" stroke="#625df5" stroke-width="2"/>
      <polygon points="70,47 70,63 84,55" class="play-tri"/>
      <text x="75" y="92" text-anchor="middle" class="small">order-service</text>
      <text x="75" y="115" text-anchor="middle" class="url-bad">orders.api.acme</text>
    </g>

    <!-- Loom 2: billing service -->
    <g transform="translate(180, 0)">
      <rect x="0" y="0" width="150" height="100" rx="6" class="loom-thumb-bad"/>
      <rect x="0" y="0" width="150" height="18" rx="6" fill="#625df5"/>
      <text x="6" y="13" font-family="Caveat, Patrick Hand, cursive" font-size="11" fill="#ffffff" font-weight="700">Loom · 4:51</text>
      <circle cx="75" cy="55" r="16" fill="#ffffff" stroke="#625df5" stroke-width="2"/>
      <polygon points="70,47 70,63 84,55" class="play-tri"/>
      <text x="75" y="92" text-anchor="middle" class="small">billing-service</text>
      <text x="75" y="115" text-anchor="middle" class="url-bad">billing.api.acme</text>
    </g>

    <!-- Loom 3: notifications -->
    <g transform="translate(360, 0)">
      <rect x="0" y="0" width="150" height="100" rx="6" class="loom-thumb-bad"/>
      <rect x="0" y="0" width="150" height="18" rx="6" fill="#625df5"/>
      <text x="6" y="13" font-family="Caveat, Patrick Hand, cursive" font-size="11" fill="#ffffff" font-weight="700">Loom · 7:33</text>
      <circle cx="75" cy="55" r="16" fill="#ffffff" stroke="#625df5" stroke-width="2"/>
      <polygon points="70,47 70,63 84,55" class="play-tri"/>
      <text x="75" y="92" text-anchor="middle" class="small">notifications</text>
      <text x="75" y="115" text-anchor="middle" class="url-bad">notify.api.acme</text>
    </g>

    <!-- Loom 4: front-end -->
    <g transform="translate(540, 0)">
      <rect x="0" y="0" width="150" height="100" rx="6" class="loom-thumb-bad"/>
      <rect x="0" y="0" width="150" height="18" rx="6" fill="#625df5"/>
      <text x="6" y="13" font-family="Caveat, Patrick Hand, cursive" font-size="11" fill="#ffffff" font-weight="700">Loom · 8:02</text>
      <circle cx="75" cy="55" r="16" fill="#ffffff" stroke="#625df5" stroke-width="2"/>
      <polygon points="70,47 70,63 84,55" class="play-tri"/>
      <text x="75" y="92" text-anchor="middle" class="small">front-end</text>
      <text x="75" y="115" text-anchor="middle" class="url-bad">app.acme.dev</text>
    </g>

    <!-- Loom 5: shared infra -->
    <g transform="translate(720, 0)">
      <rect x="0" y="0" width="150" height="100" rx="6" class="loom-thumb-bad"/>
      <rect x="0" y="0" width="150" height="18" rx="6" fill="#625df5"/>
      <text x="6" y="13" font-family="Caveat, Patrick Hand, cursive" font-size="11" fill="#ffffff" font-weight="700">Loom · 5:47</text>
      <circle cx="75" cy="55" r="16" fill="#ffffff" stroke="#625df5" stroke-width="2"/>
      <polygon points="70,47 70,63 84,55" class="play-tri"/>
      <text x="75" y="92" text-anchor="middle" class="small">infra · gateway</text>
      <text x="75" y="115" text-anchor="middle" class="url-bad">gw.k8s.acme</text>
    </g>
  </g>

  <!-- Criss-cross arrows between Looms (confused) -->
  <g transform="translate(70, 510)">
    <path d="M 75 0 Q 200 25 255 0" class="arrow-bad"/>
    <path d="M 255 0 Q 360 -25 435 0" class="arrow-bad"/>
    <path d="M 435 0 Q 540 25 615 0" class="arrow-bad"/>
    <path d="M 615 0 Q 720 -25 795 0" class="arrow-bad"/>
    <path d="M 795 0 Q 600 35 75 0" class="arrow-bad"/>
  </g>

  <text x="500" y="565" text-anchor="middle" class="label">"watch these five videos and we can sync about them next week"</text>
  <text x="500" y="588" text-anchor="middle" class="note">this is what you are paying for</text>
</svg>
