<svg xmlns="http://www.w3.org/2000/svg" viewBox="0 0 1000 600" role="img" aria-labelledby="demo-rule-title">
  <title id="demo-rule-title">The Friday Demo Rule: 15 minutes, working software only, no slides or Jira screenshots</title>
  <defs>
    <style>
      .panel-title    { font-family: "Caveat", "Patrick Hand", "Comic Sans MS", cursive; font-size: 26px; fill: #1a1a1a; font-weight: 700; }
      .label          { font-family: "Caveat", "Patrick Hand", "Comic Sans MS", cursive; font-size: 20px; fill: #1a1a1a; font-weight: 600; }
      .small          { font-family: "Caveat", "Patrick Hand", "Comic Sans MS", cursive; font-size: 16px; fill: #444; }
      .note           { font-family: "Caveat", "Patrick Hand", "Comic Sans MS", cursive; font-size: 15px; fill: #666; font-style: italic; }
      .url            { font-family: "Courier New", monospace; font-size: 15px; fill: #0277bd; }
      .ok-box         { fill: #f0f9f0; stroke: #2e7d32; stroke-width: 2.5; stroke-linejoin: round; }
      .ok-box-strong  { fill: #e8f5e9; stroke: #2e7d32; stroke-width: 3; stroke-linejoin: round; }
      .bad-box        { fill: #fff5f5; stroke: #cc342d; stroke-width: 2.5; stroke-linejoin: round; }
      .bad-strike     { stroke: #cc342d; stroke-width: 3; }
      .timer-rim      { fill: none; stroke: #1a1a1a; stroke-width: 4; }
      .timer-face     { fill: #ffffff; stroke: #1a1a1a; stroke-width: 2; }
      .timer-dot      { fill: #cc342d; }
      .laptop-base    { fill: #d0d0d0; stroke: #333; stroke-width: 2; }
      .laptop-screen  { fill: #1a1a1a; stroke: #333; stroke-width: 2; }
      .browser-bar    { fill: #2a2a2a; }
      .browser-page   { fill: #f5f5f5; }
      .stripe-pill    { fill: #635bff; stroke: #4c46c2; stroke-width: 1.5; }
      .stripe-text    { font-family: "Courier New", monospace; font-size: 13px; fill: #ffffff; font-weight: 700; }
    </style>
  </defs>

  <!-- LEFT PANEL: timer + laptop -->
  <text x="280" y="40" class="panel-title" text-anchor="middle">FRIDAY 4PM · ALLOWED IN THE ROOM</text>

  <!-- Kitchen timer -->
  <g transform="translate(125, 90)">
    <!-- timer base -->
    <rect x="-5" y="135" width="170" height="14" rx="3" class="laptop-base"/>
    <!-- timer body -->
    <circle cx="80" cy="80" r="65" class="timer-rim"/>
    <circle cx="80" cy="80" r="58" class="timer-face"/>
    <!-- tick marks -->
    <line x1="80" y1="28" x2="80" y2="36" stroke="#1a1a1a" stroke-width="2"/>
    <line x1="132" y1="80" x2="124" y2="80" stroke="#1a1a1a" stroke-width="2"/>
    <line x1="80" y1="132" x2="80" y2="124" stroke="#1a1a1a" stroke-width="2"/>
    <line x1="28" y1="80" x2="36" y2="80" stroke="#1a1a1a" stroke-width="2"/>
    <!-- 15:00 readout -->
    <text x="80" y="76" text-anchor="middle" font-family="Caveat, Patrick Hand, cursive" font-size="34" font-weight="700" fill="#1a1a1a">15:00</text>
    <text x="80" y="100" text-anchor="middle" class="small">hard stop</text>
    <!-- top knob -->
    <rect x="72" y="6" width="16" height="14" rx="3" class="timer-rim" fill="#cc342d"/>
    <circle cx="80" cy="80" r="3" class="timer-dot"/>
  </g>

  <!-- Laptop with browser -->
  <g transform="translate(305, 90)">
    <!-- laptop screen frame -->
    <rect x="0" y="0" width="220" height="145" rx="6" class="laptop-screen"/>
    <!-- browser inside -->
    <rect x="8" y="8" width="204" height="22" class="browser-bar"/>
    <circle cx="18" cy="19" r="3" fill="#ff5f57"/>
    <circle cx="30" cy="19" r="3" fill="#febc2e"/>
    <circle cx="42" cy="19" r="3" fill="#28c840"/>
    <rect x="52" y="13" width="156" height="14" rx="3" fill="#ffffff"/>
    <text x="57" y="24" class="url" style="font-size:9.5px">staging.acme.app/checkout</text>
    <!-- page body -->
    <rect x="8" y="30" width="204" height="107" class="browser-page"/>
    <!-- success line -->
    <text x="20" y="55" font-family="Caveat, Patrick Hand, cursive" font-size="14" fill="#2e7d32" font-weight="700">✓ $1 test charge processed</text>
    <text x="20" y="73" font-family="Caveat, Patrick Hand, cursive" font-size="13" fill="#444">order #1284 → paid</text>
    <text x="20" y="89" font-family="Caveat, Patrick Hand, cursive" font-size="13" fill="#444">webhook fired ✓</text>
    <text x="20" y="105" font-family="Caveat, Patrick Hand, cursive" font-size="13" fill="#444">receipt → demo@example.com</text>
    <!-- Stripe pill -->
    <rect x="20" y="113" width="128" height="18" rx="9" class="stripe-pill"/>
    <text x="84" y="126" text-anchor="middle" class="stripe-text" style="font-size:12px">stripe sandbox</text>
    <!-- laptop base -->
    <polygon points="-15,145 235,145 220,160 0,160" class="laptop-base"/>
  </g>

  <!-- Login chip -->
  <g transform="translate(305, 260)">
    <rect x="0" y="0" width="250" height="50" rx="8" class="ok-box"/>
    <text x="12" y="20" class="small">login (one message, one paste)</text>
    <text x="12" y="40" class="url" style="font-size:10px">demo@example.com / example-pass-123</text>
  </g>

  <!-- Caption -->
  <text x="280" y="345" text-anchor="middle" class="label">Working software only.</text>
  <text x="280" y="370" text-anchor="middle" class="note">click everything they show you, during the call</text>

  <!-- DIVIDER -->
  <line x1="570" y1="60" x2="570" y2="540" stroke="#cccccc" stroke-width="1.5" stroke-dasharray="6 6"/>

  <!-- RIGHT PANEL: banned items -->
  <text x="780" y="40" class="panel-title" text-anchor="middle">NOT ALLOWED IN THE ROOM</text>

  <!-- Jira screenshot (struck) -->
  <g transform="translate(620, 80)">
    <rect x="0" y="0" width="320" height="100" rx="6" class="bad-box" transform="rotate(-1.2 160 50)"/>
    <text x="160" y="28" text-anchor="middle" class="label">Jira screenshot</text>
    <!-- columns -->
    <rect x="20" y="40" width="80" height="50" rx="3" fill="#ffffff" stroke="#cccccc" stroke-width="1"/>
    <rect x="120" y="40" width="80" height="50" rx="3" fill="#ffffff" stroke="#cccccc" stroke-width="1"/>
    <rect x="220" y="40" width="80" height="50" rx="3" fill="#ffffff" stroke="#cccccc" stroke-width="1"/>
    <text x="60" y="58" text-anchor="middle" font-family="Caveat, Patrick Hand, cursive" font-size="11" fill="#666">To Do</text>
    <text x="160" y="58" text-anchor="middle" font-family="Caveat, Patrick Hand, cursive" font-size="11" fill="#666">In Progress</text>
    <text x="260" y="58" text-anchor="middle" font-family="Caveat, Patrick Hand, cursive" font-size="11" fill="#666">Done ×11</text>
    <!-- strike -->
    <line x1="-5" y1="105" x2="325" y2="-5" class="bad-strike"/>
  </g>

  <!-- Figma frame (struck) -->
  <g transform="translate(620, 215)">
    <rect x="0" y="0" width="320" height="100" rx="6" class="bad-box" transform="rotate(0.8 160 50)"/>
    <text x="160" y="28" text-anchor="middle" class="label">Figma frame</text>
    <!-- mock layout -->
    <rect x="20" y="40" width="280" height="12" rx="2" fill="#ffffff" stroke="#cccccc" stroke-width="1"/>
    <rect x="20" y="58" width="180" height="32" rx="3" fill="#ffffff" stroke="#cccccc" stroke-width="1"/>
    <rect x="210" y="58" width="90" height="32" rx="3" fill="#ffffff" stroke="#cccccc" stroke-width="1"/>
    <!-- strike -->
    <line x1="-5" y1="105" x2="325" y2="-5" class="bad-strike"/>
  </g>

  <!-- Slide deck (struck) -->
  <g transform="translate(620, 350)">
    <rect x="0" y="0" width="320" height="100" rx="6" class="bad-box" transform="rotate(-0.6 160 50)"/>
    <text x="160" y="28" text-anchor="middle" class="label">Slide deck · burndown chart</text>
    <!-- chart -->
    <polyline points="20,85 60,75 100,68 140,62 180,55 220,48 260,42 300,40" fill="none" stroke="#cc342d" stroke-width="2"/>
    <line x1="20" y1="40" x2="20" y2="90" stroke="#666" stroke-width="1"/>
    <line x1="20" y1="90" x2="300" y2="90" stroke="#666" stroke-width="1"/>
    <!-- strike -->
    <line x1="-5" y1="105" x2="325" y2="-5" class="bad-strike"/>
  </g>

  <!-- Caption -->
  <text x="780" y="495" text-anchor="middle" class="label">If a demo is not ready,</text>
  <text x="780" y="518" text-anchor="middle" class="label">say so on Wednesday.</text>

  <!-- Bottom rule -->
  <line x1="60" y1="555" x2="940" y2="555" stroke="#cccccc" stroke-width="1"/>
  <text x="500" y="580" text-anchor="middle" class="note">Friday Demo Rule · 15 minutes · Loom or live · working software only</text>
</svg>
