<svg version="1.0" xmlns="http://www.w3.org/2000/svg" viewBox="0 0 500 500" fill="#1a8bff">
    <path d="M237 1.1C182.3 5 134.2 23.6 93 56.7c-20.5 16.5-42.5 41.2-54.1 60.9l-4.7 7.9 1.6 6.6 1.7 6.5L58.7 153c11.7 7.9 21.3 14.9 21.3 15.6 0 .6-1.1 3.7-2.5 6.8-3.8 8.6-8.4 24.8-10.5 37.1-9.5 55.7 6.7 112.2 44.3 154.5 24.4 27.5 58.7 48.1 94 56.5 9 2.1 14.6 3 31.5 5.1l4.2.5V480h-3.7c-13.9 0-41.4-5.3-60.1-11.6-45.1-15.1-82.3-42.3-112.5-82.5-5.3-7.1-16.2-23.8-16.9-26.1-.5-1.3-16.8 6.8-16.8 8.3 0 2.1 11.1 19.8 19.2 30.6 40.7 54.5 100.7 89.8 168.3 98.8 12.5 1.7 40.2 2.2 51.6 1l6.4-.7-.9-9.5-.9-9.5-7.4.6-7.3.7.2-25.8.3-25.7 10.5-1.2c43.6-4.8 87.7-28 116.5-61.2 45.8-52.6 58.8-126 33.5-189.7-1.7-4.3-2.9-7.8-2.8-8 12.6-8.7 34.9-23.5 35.6-23.5 1.5 0 9.8 18.8 14.6 33.2 8.7 25.6 12.3 50.9 11.3 79.8-1.3 37.5-8.1 62.6-28.4 103.8-.9 1.7-1.4 3.4-1.2 3.6 1.5 1.2 14.9 8.6 15.7 8.6 1.4 0 14.2-26.5 18.6-38.2 5.9-16 11.2-39.2 13.6-59.1 1.4-11.4 1.4-40.5 0-53.2-3.2-29.2-11.5-57.6-24.7-84.2l-6.5-13.2-5.5-1.6c-3.1-.9-6.3-1.7-7.2-1.8-.9 0-11.2 6.3-22.8 14.1-11.7 7.8-21.6 14.2-22 14.1-.5 0-3.6-4.4-7.1-9.8-16.8-25.9-42.3-48.2-71.7-62.7-43.8-21.5-92.9-25-139.3-9.8-39.2 12.8-74.8 40.3-97.2 75.1l-4.6 7.1L74 140.4c-8.5-5.8-16.1-11.1-16.9-11.9-1.6-1.6-.1-4.3 9.9-17.5 31.6-41.7 78.6-72.5 128.5-84.4 20.1-4.7 29.7-5.8 54.5-6.2l23.5-.3.7-5.3c1.2-10.6 1-12.7-1.4-13.2-5-1-24.9-1.3-35.8-.5zm40.9 80c43.9 7.3 84.3 33.9 109.7 72.2 4.6 7 5.5 9 4.4 9.7-8.9 5.5-62 41.7-62 42.3 0 1.3 9.2 14.7 10.2 14.7.4 0 14.4-9 30.9-20.1 16.6-11 30.2-19.9 30.4-19.7 2.5 2.5 8.7 23.7 10.9 37.3 6.7 41.1-2.5 83.8-25.3 118.1-27.3 40.8-73.1 68.7-120 73l-7.1.7V384h-19v25h-4.9c-2.6 0-8.8-.7-13.7-1.5-35.3-6.1-65.6-21.7-90.4-46.5-23.9-24-40.2-55.3-46.1-88.6-2.9-16.5-2.9-40.3 0-56.8 1.8-9.8 9.5-36.6 10.7-36.6.1 0 13.8 9.2 30.4 20.5 16.5 11.3 30.4 20.5 30.9 20.5.9 0 10.1-13.5 10.1-14.8 0-.5-13.8-10.2-30.7-21.7-17-11.5-31-21-31.2-21.2-2.1-1.6 13.5-22.8 25.9-35.2 38.5-38.5 91.2-55.1 145.9-46z"/>
    <path d="M235 115.5c-7.9 2-12.6 4.1-20.2 9.2-8.6 5.6-15.7 13.6-20.2 22.7-5.5 10.8-6.9 18.1-6.3 31.1.6 13.4 2.9 20.6 9.9 31.2 13.8 20.6 39.1 30.9 63.3 25.8 28-5.9 48.5-30.8 48.7-59 .2-11.1-1.3-17.7-6.2-28-6.9-14.4-19.7-25.8-35.2-31.2-9-3.2-25.1-4.1-33.8-1.8zm24.3 19c12.7 3.3 21.6 10.6 27.4 22.3 3.7 7.4 3.8 7.9 3.8 18.6 0 10.4-.2 11.5-3.2 17.9-3.9 8.2-11.9 16.4-19.5 20-21.5 10.2-46.4 1.5-56.9-19.8-3.2-6.6-3.4-7.5-3.4-18 0-10.3.2-11.4 3.1-17.5 9.1-19 29-28.6 48.7-23.5zM201.8 252c-16.2 4-30.2 12.4-42.5 25.3-13.2 14.1-21.8 32.7-23 50.3l-.6 8.5 4.9 5 4.8 4.9h207.2l4.7-4.8c4.5-4.6 4.7-5 4.7-10.7 0-3.3-.9-9.7-2-14.3-7.8-32.4-34.5-58.2-67-64.8l-8.5-1.7-5 3-5 2.9-12.5 28.2c-6.9 15.5-12.7 28.2-13 28.2-.3 0-6.1-12.7-12.9-28.1-12.3-27.8-12.5-28.1-17-31-5.3-3.3-6.9-3.4-17.3-.9zm19.8 46.1c6.8 15.1 12.3 27.7 12.3 28.1.1.5-17.4.8-38.9.8h-39v-2.3c0-3.9 3-12.8 6.8-20.2 4.7-9.2 18.1-22.7 27.2-27.5 6.6-3.4 16.7-7.1 18.5-6.6.5.1 6.4 12.6 13.1 27.7zm78.7-24.6c21.1 8.4 38.7 29.3 41.4 49.1l.6 4.4h-39.2c-21.5 0-39.1-.2-39.1-.4s4.8-11.1 10.6-24.2c5.9-13.2 11.5-25.9 12.5-28.3 2.2-4.9 2.5-4.9 13.2-.6zM320.2 20.8l-2.9 8.8 9.5 3.2c5.2 1.8 14.2 5.5 20 8.2 5.7 2.7 10.8 4.8 11.2 4.5.9-.5 9-14.1 9-15 0-1.7-39-18.5-43-18.5-.4 0-2.1 4-3.8 8.8zM402 64.4c-3 3.6-5.5 6.9-5.5 7.4 0 .4 3.4 3.8 7.5 7.4 4.1 3.6 10.9 10.5 15 15.2 4.1 4.7 7.8 8.6 8.1 8.6.9 0 13.4-11 13.8-12.1.4-1.2-31-32.9-32.5-32.9-.5 0-3.4 2.9-6.4 6.4zM12.1 174.2c-2.6 8-6.6 25.1-8 34.8-.7 4.1-1.4 8.7-1.6 10.2-.4 2.6-.4 2.6 7.3 3.3 4.2.4 8.4.9 9.3 1.1 1.3.4 1.8-.6 2.3-4.8 1.2-9.2 4.5-24 7.7-34.2 1.7-5.4 2.7-10.2 2.2-10.6-.9-.8-15-6-16.3-6-.4 0-1.8 2.8-2.9 6.2zM11 276.2c-4.7.5-8.6 1-8.7 1.1-.3.4 2.8 19.5 4.2 26.2 2.1 9.5 6.6 24.8 7.5 25.8.4.5 4.6-.4 9.3-1.9 8.4-2.7 8.5-2.8 7.5-5.3-1.8-4.9-7.6-29.6-8.8-38.4-.7-4.8-1.6-8.6-1.9-8.6-.3.1-4.4.6-9.1 1.1zM412.2 411.8 397 427.3l3.7 4.5c2.1 2.4 4.7 5.6 5.9 7l2.1 2.6 2.9-2.1c3.9-2.8 30.4-29.8 30.4-31 0-.9-12.5-11.7-13.8-11.9-.4 0-7.6 6.9-16 15.4zM347.5 458.1c-5.5 2.7-14.3 6.3-19.6 8.1l-9.6 3.3 3.1 9.2 3.1 9.2 11.7-4.4c13.3-4.9 30.2-12.7 31.2-14.4.8-1.2-7.3-15.3-8.9-15.7-.6-.1-5.5 2-11 4.7z"/>
</svg>