<svg xmlns="http://www.w3.org/2000/svg" viewBox="0 0 1000 460" role="img" aria-labelledby="kit-sample-title">
  <title id="kit-sample-title">Sample row from the First 10 Customers Airtable tracker</title>
  <defs>
    <style>
      .heading       { font-family: "Caveat", "Patrick Hand", "Comic Sans MS", sans-serif; font-size: 24px; fill: #1a1a1a; font-weight: 700; }
      .header-row    { fill: #1a1a1a; }
      .header-text   { font-family: "Caveat", "Patrick Hand", "Comic Sans MS", sans-serif; font-size: 14px; fill: #fff; font-weight: 700; }
      .cell-text     { font-family: "Caveat", "Patrick Hand", "Comic Sans MS", sans-serif; font-size: 13px; fill: #1a1a1a; }
      .pill-champion { fill: #a855f7; }
      .pill-hot      { fill: #cc342d; }
      .pill-warm     { fill: #b8860b; }
      .pill-text     { font-family: "Caveat", "Patrick Hand", "Comic Sans MS", sans-serif; font-size: 12px; fill: #fff; font-weight: 700; }
      .row-stripe-a  { fill: #fff5f5; stroke: #ddd; stroke-width: 0.5; }
      .row-stripe-b  { fill: #fdfdfd; stroke: #ddd; stroke-width: 0.5; }
      .row-stripe-c  { fill: #fbe9ff; stroke: #ddd; stroke-width: 0.5; }
      .note          { font-family: "Caveat", "Patrick Hand", "Comic Sans MS", sans-serif; font-size: 14px; fill: #444; font-style: italic; }
    </style>
  </defs>

  <text x="500" y="35" class="heading" text-anchor="middle">First 10 Customers tracker - sample rows from the Airtable template</text>

  <!-- Header -->
  <rect x="40" y="60" width="920" height="42" class="header-row"/>
  <text x="55" y="86" class="header-text">Name</text>
  <text x="200" y="86" class="header-text">Company</text>
  <text x="340" y="86" class="header-text">Bucket</text>
  <text x="430" y="86" class="header-text">Loom sent</text>
  <text x="540" y="86" class="header-text">Reply</text>
  <text x="630" y="86" class="header-text">Demo</text>
  <text x="730" y="86" class="header-text">DPA sent</text>
  <text x="850" y="86" class="header-text">Deposit</text>

  <!-- Row 1: Champion converted -->
  <rect x="40" y="105" width="920" height="38" class="row-stripe-c"/>
  <text x="55" y="129" class="cell-text">Priya Shah</text>
  <text x="200" y="129" class="cell-text">Quanta Marketing</text>
  <rect x="335" y="115" width="80" height="22" rx="11" class="pill-champion"/>
  <text x="375" y="131" class="pill-text" text-anchor="middle">CHAMPION</text>
  <text x="430" y="129" class="cell-text">May 6</text>
  <text x="540" y="129" class="cell-text">Yes - May 7</text>
  <text x="630" y="129" class="cell-text">May 9</text>
  <text x="730" y="129" class="cell-text">May 10</text>
  <text x="850" y="129" class="cell-text">$2,400</text>

  <!-- Row 2: Hot in demo -->
  <rect x="40" y="148" width="920" height="38" class="row-stripe-a"/>
  <text x="55" y="172" class="cell-text">Marcus Liu</text>
  <text x="200" y="172" class="cell-text">Beacon Analytics</text>
  <rect x="335" y="158" width="55" height="22" rx="11" class="pill-hot"/>
  <text x="362" y="174" class="pill-text" text-anchor="middle">HOT</text>
  <text x="430" y="172" class="cell-text">May 6</text>
  <text x="540" y="172" class="cell-text">Yes - May 8</text>
  <text x="630" y="172" class="cell-text">May 12 scheduled</text>
  <text x="730" y="172" class="cell-text">-</text>
  <text x="850" y="172" class="cell-text">-</text>

  <!-- Row 3: Warm declined -->
  <rect x="40" y="191" width="920" height="38" class="row-stripe-b"/>
  <text x="55" y="215" class="cell-text">Sarah Okafor</text>
  <text x="200" y="215" class="cell-text">Mesa Systems</text>
  <rect x="335" y="201" width="70" height="22" rx="11" class="pill-warm"/>
  <text x="370" y="217" class="pill-text" text-anchor="middle">WARM</text>
  <text x="430" y="215" class="cell-text">May 7</text>
  <text x="540" y="215" class="cell-text">Yes - no fit</text>
  <text x="630" y="215" class="cell-text">-</text>
  <text x="730" y="215" class="cell-text">-</text>
  <text x="850" y="215" class="cell-text">-</text>

  <!-- Row 4: Hot replying -->
  <rect x="40" y="234" width="920" height="38" class="row-stripe-a"/>
  <text x="55" y="258" class="cell-text">Devon Park</text>
  <text x="200" y="258" class="cell-text">Cohort Health</text>
  <rect x="335" y="244" width="55" height="22" rx="11" class="pill-hot"/>
  <text x="362" y="260" class="pill-text" text-anchor="middle">HOT</text>
  <text x="430" y="258" class="cell-text">May 6</text>
  <text x="540" y="258" class="cell-text">Maybe - May 9</text>
  <text x="630" y="258" class="cell-text">F/u sent</text>
  <text x="730" y="258" class="cell-text">-</text>
  <text x="850" y="258" class="cell-text">-</text>

  <!-- Row 5: Champion converted -->
  <rect x="40" y="277" width="920" height="38" class="row-stripe-c"/>
  <text x="55" y="301" class="cell-text">Ana Reyes</text>
  <text x="200" y="301" class="cell-text">Northwall Studio</text>
  <rect x="335" y="287" width="80" height="22" rx="11" class="pill-champion"/>
  <text x="375" y="303" class="pill-text" text-anchor="middle">CHAMPION</text>
  <text x="430" y="301" class="cell-text">May 6</text>
  <text x="540" y="301" class="cell-text">Yes - May 6</text>
  <text x="630" y="301" class="cell-text">May 8</text>
  <text x="730" y="301" class="cell-text">May 9</text>
  <text x="850" y="301" class="cell-text">$1,800</text>

  <!-- Note -->
  <text x="500" y="365" class="note" text-anchor="middle">Color-coded bucket pills. Date-stamped progress. Deposit column sums to your live ARR.</text>
  <text x="500" y="390" class="note" text-anchor="middle">Friday afternoon review: how many in each column, which rows stalled, what is your next move.</text>

  <!-- Bottom callout -->
  <rect x="60" y="410" width="880" height="38" rx="8" fill="#fff8e0" stroke="#b8860b" stroke-width="2"/>
  <text x="500" y="435" class="heading" text-anchor="middle" font-size="18">Names in this sample are illustrative composites.</text>
</svg>
