<svg xmlns="http://www.w3.org/2000/svg" viewBox="0 0 1000 470" role="img" aria-labelledby="kit-title">
  <title id="kit-title">The First-Paying-Customer Operating Kit and its six components: the 50-name network list, cold-email scripts, the Design Partner Agreement, the Stripe Checkout setup, the Sean Ellis 40 percent survey, and the First 10 Customers tracker.</title>
  <defs>
    <style>
      .h      { font-family: "Caveat", "Patrick Hand", "Comic Sans MS", cursive; }
      .hubttl { font-size: 25px; font-weight: 700; fill: #1a1a1a; }
      .hubsub { font-size: 16px; fill: #6b3a86; font-style: italic; }
      .ctitle { font-size: 21px; font-weight: 700; fill: #1a1a1a; }
      .cnote  { font-size: 16px; fill: #555; font-style: italic; }
      .num    { font-size: 18px; font-weight: 700; fill: #fff; }
      .hub    { fill: #fbe9ff; stroke: #a855f7; stroke-width: 2.5; }
      .card   { fill: #faf7f2; stroke: #555;    stroke-width: 2; }
      .numdot { fill: #cc342d; }
      .link   { stroke: #bbb; stroke-width: 1.75; fill: none; }
    </style>
    <marker id="kah" viewBox="0 0 10 10" refX="8" refY="5" markerWidth="6.5" markerHeight="6.5" orient="auto-start-reverse">
      <path d="M 0 1 L 8 5 L 0 9 z" fill="#bbb"/>
    </marker>
  </defs>

  <!-- Hub -->
  <g transform="rotate(-0.3 500 56)">
    <rect x="290" y="24" width="420" height="64" rx="14" class="hub"/>
    <text x="500" y="52" text-anchor="middle" class="h hubttl">First-Paying-Customer Operating Kit</text>
    <text x="500" y="76" text-anchor="middle" class="h hubsub">Six templates that run Module 5</text>
  </g>

  <!-- Connectors: hub to row 1 -->
  <path d="M 420 88 C 320 100, 210 102, 175 116" class="link" marker-end="url(#kah)"/>
  <path d="M 500 90 L 500 116" class="link" marker-end="url(#kah)"/>
  <path d="M 580 88 C 680 100, 790 102, 825 116" class="link" marker-end="url(#kah)"/>
  <!-- Connectors: row 1 to row 2 -->
  <path d="M 175 238 L 175 268" class="link" marker-end="url(#kah)"/>
  <path d="M 500 238 L 500 268" class="link" marker-end="url(#kah)"/>
  <path d="M 825 238 L 825 268" class="link" marker-end="url(#kah)"/>

  <!-- Card 1 -->
  <g transform="rotate(0.3 175 178)">
    <rect x="30" y="118" width="290" height="120" rx="12" class="card"/>
    <circle cx="58" cy="148" r="16" class="numdot"/>
    <text x="58" y="154" text-anchor="middle" class="h num">1</text>
    <text x="50" y="192" class="h ctitle">50-name network list</text>
    <text x="50" y="218" class="h cnote">Google Sheet &#183; Chapter 5.3</text>
  </g>

  <!-- Card 2 -->
  <g transform="rotate(-0.3 500 178)">
    <rect x="355" y="118" width="290" height="120" rx="12" class="card"/>
    <circle cx="383" cy="148" r="16" class="numdot"/>
    <text x="383" y="154" text-anchor="middle" class="h num">2</text>
    <text x="375" y="192" class="h ctitle">Cold-email scripts</text>
    <text x="375" y="218" class="h cnote">3 sector variants &#183; Chapter 5.7</text>
  </g>

  <!-- Card 3 -->
  <g transform="rotate(0.3 825 178)">
    <rect x="680" y="118" width="290" height="120" rx="12" class="card"/>
    <circle cx="708" cy="148" r="16" class="numdot"/>
    <text x="708" y="154" text-anchor="middle" class="h num">3</text>
    <text x="700" y="182" class="h ctitle">Design Partner</text>
    <text x="700" y="205" class="h ctitle">Agreement</text>
    <text x="700" y="228" class="h cnote">One-page LOI &#183; Chapter 5.6</text>
  </g>

  <!-- Card 4 -->
  <g transform="rotate(-0.3 175 330)">
    <rect x="30" y="270" width="290" height="120" rx="12" class="card"/>
    <circle cx="58" cy="300" r="16" class="numdot"/>
    <text x="58" y="306" text-anchor="middle" class="h num">4</text>
    <text x="50" y="344" class="h ctitle">Stripe Checkout setup</text>
    <text x="50" y="370" class="h cnote">Rails / Django / Laravel</text>
  </g>

  <!-- Card 5 -->
  <g transform="rotate(0.3 500 330)">
    <rect x="355" y="270" width="290" height="120" rx="12" class="card"/>
    <circle cx="383" cy="300" r="16" class="numdot"/>
    <text x="383" y="306" text-anchor="middle" class="h num">5</text>
    <text x="375" y="344" class="h ctitle">Sean Ellis 40% survey</text>
    <text x="375" y="370" class="h cnote">5 questions &#183; Chapter 5.1</text>
  </g>

  <!-- Card 6 -->
  <g transform="rotate(-0.3 825 330)">
    <rect x="680" y="270" width="290" height="120" rx="12" class="card"/>
    <circle cx="708" cy="300" r="16" class="numdot"/>
    <text x="708" y="306" text-anchor="middle" class="h num">6</text>
    <text x="700" y="334" class="h ctitle">First 10 Customers</text>
    <text x="700" y="357" class="h ctitle">tracker</text>
    <text x="700" y="380" class="h cnote">Google Sheet &#183; Chapter 5.7</text>
  </g>

  <text x="500" y="432" text-anchor="middle" class="h cnote" font-size="17">From live MVP to signed paid pilot in 4 weeks - one template per step.</text>
</svg>
