<svg xmlns="http://www.w3.org/2000/svg" width="27.5" height="32.5">
    <defs>
        <style>.a, .b {
            fill: none;
            stroke: #1a8cff;
            stroke-linecap: round;
            stroke-width: 1.5px
        }

        .a {
            stroke-linejoin: round
        }

        .b {
            stroke-linejoin: bevel
        }</style>
    </defs>
    <g transform="translate(-3.75 -2.25)">
        <rect class="a" width="26" height="31" rx="1.5" transform="translate(4.5 3)"/>
        <path class="b" d="M8.5 16h9M8.5 12h18M4.5 8h26M8.5 6h2M13.285 5.551h2.551"/>
        <path class="a"
              d="M15.553 30.204h9.348a1.7 1.7 0 0 0 1.7-1.7v-6.8a1.7 1.7 0 0 0-1.7-1.7h-2.8l-9.7 10.2h-2.8a1.7 1.7 0 0 1-1.7-1.7v-6.8a1.7 1.7 0 0 1 1.7-1.7h9.352"/>
        <path class="a" d="m19.804 22.555 2.55 2.55-2.55 2.55M14.702 22.555l-2.55 2.55 2.55 2.55"/>
    </g>
</svg>