<svg version="1.0" xmlns="http://www.w3.org/2000/svg" width="32" height="32" viewBox="0 0 470 500">
    <g fill="#1a8cff">
        <path d="M229.3.7c-5.8 1.1-9.3 8.1-9.3 18.5 0 4-.4 5.8-1.3 5.8-.6 0-6.9.7-13.9 1.5-60.7 7.1-118.2 38.7-156.5 86-9.4 11.6-22.1 31.2-22.9 35.1-.4 2.3 0 4.5 1.2 7 1.6 3.2 4.5 5.2 20.8 14.6 21.1 12.1 24 12.9 29.5 8.3 4.2-3.6 5.6-8.3 3.8-12.8-1.7-4-4.9-6.6-17.4-13.6-5.1-2.9-9.3-5.6-9.3-6s1.9-3.4 4.1-6.7c14.9-21.3 38.8-43.7 62-58.1 23.8-14.8 54.2-25.8 82.7-29.7 18.1-2.6 16.8-3 17.5 6.4.6 8.9 2.6 12.9 7.7 15 6.5 2.7 9.3 1.1 25.1-14.8 15.4-15.5 17-18.1 14.8-24-1.4-3.7-27.6-30-31.6-31.8-1.8-.8-3.6-1.3-4-1.3-.4.1-1.8.4-3 .6z"/>
        <path d="M218.4 84.8c-13.1 4.7-21.6 15.3-23.4 29.4-.5 4.2-1.6 8.2-2.7 9.6-2.3 3.1-19 10.3-25.4 10.9-4.3.4-5.1.2-8.7-3.1-2.1-2-6.6-4.8-9.8-6.3-8.3-3.9-19.3-3.9-27.7-.1-7.9 3.7-16 11.6-20 19.7-2.9 5.9-3.2 7.4-3.1 15.1.1 9.9 1.9 14.8 8.3 22.5 3.8 4.6 4.2 5.4 3.8 9.5-.5 5.6-7.1 21.7-10.2 24.9-1.7 1.8-3.8 2.5-9.3 3.1-13.2 1.4-23.3 8.4-28.9 19.8-2.5 5.2-2.8 6.7-2.8 16.7s.3 11.5 2.8 16.6c3.2 6.6 10.9 14.2 17.2 17 2.4 1.1 7.6 2.3 11.6 2.8 9 1.2 10.4 2.5 15.4 14.6 5.7 13.5 5.7 15.6-.4 23.8-6.3 8.6-7.6 12.3-7.6 22.2 0 9.4 2.6 16.1 9.3 23.6 14.1 15.8 35.7 17.9 50.4 5 6.6-5.8 8.1-5.8 20.9-.6 14.5 6 15.6 7 16.8 16.3 1.9 14.9 11 26.3 24.3 30.3 23.4 7.1 46.3-7 48.5-29.8 1-9.9 1.7-10.7 14.3-15.8 15.4-6.3 16.5-6.4 22.9-.9 10.7 9.2 24.7 11.5 36.7 6 8-3.6 17.3-13 21-21.1 5.4-11.8 3.2-25.5-5.9-36.2-5.4-6.5-5.5-8.5-.7-19.9 7-16.7 7-16.7 17.5-17.6 11.8-1.1 22.2-8.4 27.7-19.6 3.1-6.2 3.3-7.4 3.3-16.7s-.2-10.5-3.3-16.7c-5.6-11.5-17.6-19.8-28.3-19.8-6.2 0-10.4-2.4-12.4-7.3-1-2.3-3.4-7.7-5.2-12-4-9.1-3.9-11.7 1.4-17.9 9.6-11.6 11.5-25.5 5.1-38.7-3-6.2-12.4-15.3-19.4-18.7-5.1-2.4-7.1-2.8-14.4-2.8-9.7.1-14.1 1.6-22.9 8.3-3.6 2.7-6.5 4.1-8.5 4.1-1.7 0-8.1-2.1-14.2-4.6-12.7-5.2-13.9-6.6-14.8-16.5-.9-11.3-8.6-22-19.6-27.5-7.3-3.6-21.8-4.4-29.6-1.6zm22.5 25c2.2 2.1 2.9 4 3.4 8.8 1 9.7 4.2 16.8 10.1 22.7 2.8 2.9 6.9 6 9.1 6.9s8.5 3.6 14 5.9c8.9 3.8 10.9 4.3 18 4.4 9.7 0 15.2-1.9 23.1-8.1 7.8-6 11.7-6.1 17.9-.3 4.6 4.2 6.3 8.7 5 12.8-.3 1.1-2.4 4.2-4.6 6.8-6 7.3-8.2 14.1-7.6 23.8.3 5.7 1.2 9.6 3 13.5 1.4 3 4 9.1 5.8 13.5 5.6 13.5 15.2 21 29.1 22.5 10.7 1.2 13.8 4.3 13.8 13.6 0 5-2.1 9.8-4.8 11.2-.9.5-4.4 1.3-7.7 1.7-9.6 1.1-16.3 4.2-22 9.9-4.3 4.3-6 7.3-11 19.1-5.2 12.1-6 15-6.3 21.5-.5 9.2 1.9 16.2 7.7 23.3 2.2 2.6 4.3 5.7 4.6 6.8 1.3 3.9-.4 8.4-4.6 12.5-3.5 3.4-4.6 3.9-8.7 3.9s-5.5-.6-9.1-3.7c-7.6-6.5-12.4-8.2-22.6-8.3-9.5 0-10.1.2-32.1 10-10.7 4.7-17.4 13.7-19.4 26-.7 3.9-1.4 8-1.6 9.3-.7 3.5-6 6.2-12.4 6.2-9 0-11.7-2.9-13.1-14.1-1.5-11.8-9.2-23.2-18.5-27.1-2.2-.9-8.4-3.6-13.9-5.9-16.2-6.9-28.2-6.5-38.6 1.4-11.4 8.7-14 8.9-21 1.8-4.2-4.2-4.9-5.4-4.9-8.8 0-3.2.8-5.1 4-9.1 5.5-6.9 8.2-13.4 8.8-21.2.4-7-.2-9.2-7.2-26.3-4.7-11.4-7.8-15.9-13.6-20.2s-11-6.2-19.2-7.1c-5-.6-6.8-1.3-9-3.5-2.5-2.4-2.8-3.5-2.8-9.1 0-9.9 2.6-12.4 14.1-13.9 8.3-1 15-4.3 20.5-9.9 4.6-4.6 5.3-5.8 12-21.5 4.4-10.2 4.8-11.6 4.8-19.5.1-9.7-2.2-16.1-8.7-23.8-2.8-3.3-3.7-5.3-3.7-8 0-7.3 6.9-14.2 14.1-14.2 2.8 0 4.8.9 8.5 4 7.1 5.8 12.8 8.2 20.9 8.8 7.5.4 9.4 0 27-7.3 17.1-7 24.6-15.6 26.4-30.4 1.5-11.5 4-14.1 13.9-14.1 5.6 0 6.7.3 9.1 2.8z"/>
        <path d="M218 166.1c-3.6.6-10.5 2.4-15.5 4-32.2 10.8-55.1 37.7-61 71.6-6.9 39.7 14.4 79.8 51.8 97.3 20.3 9.5 43.4 11.1 64.9 4.4 31.7-9.9 55.9-36.6 62.5-69 1.3-6.3 1.3-7.6-.1-10.7-3.2-7.7-12.7-9.8-18.6-4.2-2.1 2.1-3.3 4.6-4.5 10.4-4.7 21.2-17.7 37.9-37 47.2-44.7 21.6-96.6-11.1-96.5-60.8 0-10.8 2.2-20 7.1-30.1 3.4-7 5.8-10.2 12.8-17.2 10-10 20.3-15.7 33.5-18.6 9.2-2 23.4-1.5 32.9 1.1 4.7 1.3 6.6 1.4 9.3.5 9.2-3.1 10.6-15.9 2.2-20.9-7.3-4.5-30-7.1-43.8-5z"/>
        <path d="m265.5 230-34 34-12.5-12.6c-13.3-13.4-16.4-15.6-21.5-15.6-4.3 0-7.2 1.7-9.5 5.5s-2.5 7.8-.6 11.5c.8 1.5 9.7 10.9 19.8 20.8 19.7 19.6 21.6 20.8 27.9 18.1 2-.9 19.2-17.4 42.2-40.4l38.7-38.9v-4.8c0-4.1-.5-5.3-3.4-8.2s-4.1-3.4-8.2-3.4h-4.8l-34.1 34zM408.9 147.3c-26.8 16.2-26.8 16.2-27.5 22.4-.6 5 2.4 9.9 7.3 12 5 2 7.1 1.3 22.2-8l12.4-7.6 2.8 6c22 46.4 25.8 102.8 10.3 152.9-4.1 13.3-12.2 33-13.6 33-.5 0-3.8-1.6-7.2-3.5-7-3.9-12.2-4.5-16.2-1.9-2.8 1.9-5.4 6.3-5.4 9.3 0 3.5 9.8 38.1 11.5 40.7.9 1.4 3.3 3.2 5.3 4.1 3.4 1.4 4.3 1.3 21.1-3.2 9.7-2.6 19-5.3 20.6-6 4.4-1.8 6.7-4.9 7.2-9.8.4-3.6.1-4.8-2.1-7.5-1.5-1.7-5.2-4.5-8.2-6.2-2.9-1.7-5.4-3.5-5.4-3.9 0-.5 2-5.1 4.4-10.2 8.9-18.9 15.8-42.8 19.2-66.4 2.1-14.5 2.3-45.6.5-59.5-3.6-27.1-11-52-22.6-75.6-12-24.6-13.5-25.1-36.6-11.1zM13.6 338.2c-3.2 3-3.9 5-8.6 22.6-5.6 21.3-5.7 24-.3 28.2 4.9 3.8 8.5 3.6 16.6-.8l7.4-4.1 6.1 9.2c28.8 43.4 71.8 76.7 120.7 93.4 20.9 7.1 38.6 10.6 61.8 12.4 16.7 1.2 20.1.6 24.2-4.2 2.5-3 2.5-3.3 2.5-21 0-20-.6-22.6-6.2-25.5-4-2.1-10.2-1.3-13.4 1.7s-4.4 7.7-4.4 17.4v8.1l-9.2-.8c-39-3.4-80.8-20.7-112.8-46.5-15.5-12.6-34.9-34.3-46.2-52l-2.7-4.2 6.4-3.5C63.6 364 66 361 66 355.4c0-3.4-.6-5.1-2.7-7.4-2.5-2.7-5.1-3.7-21.1-8-21.9-6-24-6.1-28.6-1.8z"/>
    </g>
</svg>