<svg version="1.0" xmlns="http://www.w3.org/2000/svg" width="32" height="32" viewBox="0 0 481 500">
    <g fill="#1a8cff">
        <path d="M68 1.4C56.3 3.9 46.3 11.9 41.2 22.8c-2.3 4.9-2.7 7-2.7 15.2s.4 10.3 2.6 15c5.5 11.6 16.3 19.9 28.4 21.8 16 2.6 32.6-6 39.5-20.4l2.2-4.4H181V138.7l-10.7.6c-6 .3-11.8.9-13 1.2l-2.3.7V114c0-30.1-.4-32.6-6.3-35.6-6.1-3.2-12.7-1.5-16.4 4.3-1.6 2.4-1.8 6.3-2.1 37.6l-.3 34.8-5 6.2c-10.9 13.4-16.2 30.8-14.1 46l1.1 8.2-3.2 2.4c-11.3 8.7-20.4 21.6-24.3 34.6-2.9 9.4-2.5 25.9.7 35.2l2.5 7.3H50v-54.6l4.3-2.1c25.9-12.7 28.2-49.7 3.9-65.1-18.9-12.1-43.5-5.3-53.6 14.6-9.1 17.9-1.8 40.6 15.9 49.8l5.5 2.9v34.8c0 29.1.2 35.3 1.5 37.7 3 5.9 3.9 6 43.7 6 41.8 0 41.3-.1 40.2 7.3-.5 3.4-1.8 5.4-7.2 10.9l-6.6 6.8H65.7c-27.8 0-32.1.2-34.3 1.6-5.2 3.5-6.9 11-3.7 16.5 3.1 5.2 6.1 5.9 26.9 5.9h18.9l-16.7 16.8c-9.2 9.2-17.2 18-17.8 19.5-1.4 3.9.3 10 3.6 12.6 1.4 1.1 15 6.1 30.3 11.2l27.7 9.3 9.3 27.7c5.1 15.3 10.1 28.9 11.2 30.3 2.5 3.2 7.8 4.7 12.2 3.5 2.3-.6 13.4-11 41.5-39.2l38.4-38.4 6.6 2.6c6.1 2.3 8.1 2.5 20.7 2.5 12 0 14.9-.3 20-2.2l5.9-2.2 6.6 6.3c3.6 3.5 21.1 20.6 39 38.1 23.4 22.8 33.4 31.9 35.7 32.5 4.4 1.2 9.7-.3 12.2-3.5 1.1-1.4 6.1-15 11.2-30.3l9.3-27.7 27.7-9.3c15.3-5.1 28.9-10.1 30.3-11.2 3.3-2.6 5-8.7 3.6-12.6-.6-1.5-17-18.8-36.4-38.3-33.1-33.2-35.4-35.8-36-39.7-.6-4.1-.5-4.3 3.7-7.2 10-6.9 19.3-20.3 23.3-33.6 2.5-8.2 2.5-24.8 0-32.9-3.9-13.2-11.5-24.4-21.7-32.3-6.4-5-6.3-4.6-4.3-14.1l.4-2.2h60v88.5l-5.5 2.9c-7.2 3.7-14.7 12-17.6 19.4-3.1 7.9-3.1 19.5 0 27.4s10.6 15.9 18.7 19.9c16.7 8.2 37.2 2.6 47.4-13.1 4.7-7.5 6.4-14.1 5.8-23.5-.8-12.8-8.3-24.2-19.7-30L455 293v-51.6c0-56.6 0-56.2-5.9-59.7-2.6-1.5-7-1.7-42.4-1.7h-39.6l-2.4-5.3c-5.7-12.4-17.4-24.1-29.4-29.4l-6.2-2.8-.1-20.8V101h63.5l2.9 5.5c3.5 6.8 10 12.9 17.4 16.3 4.9 2.3 7 2.7 15.2 2.7 8.4 0 10.2-.3 15.8-2.9 8-3.7 16.1-12.2 19.3-20.3 3.5-9 3.2-19.9-.8-28.4-5.4-11.6-13.5-18.4-25.3-21.5-16.1-4.1-34.1 4-42 18.9l-2.5 4.6-39.5.3c-37.1.3-39.7.4-42.7 2.3-5.9 3.5-6.3 5.5-6.3 34.3v26l-3.7.6c-2.1.4-4.5.9-5.3 1.1-.9.3-2.5-1.1-4-3.6-1.4-2.3-4.9-6.3-7.7-9l-5.3-5V50h46c50.6 0 50.4 0 53.5-6s1-13.7-4.5-16.5c-4.3-2.2-108.6-2.3-112.9-.1-6.2 3.2-6.1 2.7-6.1 45.4v38.9l-9.9-.5c-12-.6-21.7 1.3-31.3 6.2l-6.7 3.4-.3-44-.3-44-3.7-3.4L198 26h-86.8l-2.2-4.4C104 11.2 93.4 3.3 81.6 1.1 74.7-.2 75.1-.2 68 1.4zM82.5 27c8.3 5.1 7.5 18.4-1.3 22.6-7.1 3.3-15 .1-17.8-7.2-1.6-4.1-1.6-4.7.1-9 3-7.9 11.8-10.8 19-6.4zM435 77.6c8.9 5.3 7.6 19.5-2.2 23.2-9.8 3.8-19.9-5.3-17.4-15.5.4-1.4 2.2-4.1 4.1-6 2.8-2.8 4-3.3 8-3.3 2.6 0 5.9.7 7.5 1.6zm-186.8 58.5c11.9 2.6 20.9 9.6 26 20.5 5.3 11.3 10.4 13.5 21 9.3 3.9-1.6 7.5-2.2 13.3-2.2 10.4-.1 17.5 2.6 25.1 9.5 11.7 10.8 15.3 25.6 10 41.1-2.3 6.6-2.6 8.3-1.6 11.1 1.4 4.3 4.1 6.7 11.4 10.1 7.5 3.5 14 10 17.4 17.3 2.4 5 2.7 6.9 2.7 16.2s-.3 11.2-2.7 16.2c-3.4 7.3-10.4 14.3-17.6 17.5-7 3.2-9.8 5.6-11.2 9.9-1 2.8-.7 4.5 1.5 11.1 5.3 15.4 2.1 29.8-9.2 40.4-8 7.6-14.8 10.4-25.3 10.3-6.4 0-10-.6-14.4-2.3-6.5-2.6-11.5-2.4-14.8.6-1 .9-3.7 5.2-6 9.5-6.1 11.7-14 17.7-26.8 20-4.5.9-7.8.9-12.6.1-12.9-2.2-21-8.2-27.2-20.1-2.3-4.3-5-8.6-6-9.5-3.3-3-8.3-3.2-14.8-.6-8.8 3.4-20.9 3.3-28.7-.3-7.6-3.6-16-11.7-19.4-18.7-4.1-8.5-4.4-19.2-.8-29.4 2.2-6.6 2.5-8.3 1.5-11.1-1.4-4.3-4.2-6.7-11.2-9.9-7.2-3.2-14.2-10.2-17.6-17.5-2.4-5-2.7-6.9-2.7-16.2s.3-11.2 2.7-16.2c3.4-7.3 9.9-13.8 17.4-17.3 7.3-3.4 10-5.8 11.4-10.1 1-2.8.7-4.5-1.5-11.1-3.7-10.5-3.3-20.9 1-29.7 3.7-7.4 12.8-15.8 20.4-18.8 7.8-3 19.7-3 26.5 0 10.4 4.7 16.2 2.4 21-8.2 7.7-16.9 24-25.2 41.8-21.5zm-203 57.7c5.7 3.3 7.3 12.4 3.3 18.5-.9 1.4-3.7 3.4-6.1 4.3-4.1 1.6-4.7 1.6-8.9 0-7.9-3.1-10.9-12-6.4-19.2 1.1-1.9 2.1-3.4 2.2-3.4s2-.7 4.2-1.4c4.3-1.6 7.4-1.2 11.7 1.2zm404.6 123.9c3.1 1.9 6.2 7.2 6.2 10.6 0 3.6-2.3 8-5.5 10.5-8.3 6.6-20.5.6-20.5-10 0-10.8 10.7-16.8 19.8-11.1zm-328.5 53.9c7.5 11.5 18.4 19.9 31.7 24.4 7.3 2.5 23.8 3.8 30.5 2.3 3.9-.9 4-.8 7.1 3.7l3.2 4.5-28.6 28.7c-15.8 15.9-29 28.8-29.4 28.8-.3 0-3.8-9.6-7.8-21.4-4.8-14.5-7.8-22-9.4-23.5-1.3-1.3-10.8-5-23.1-9.1-11.4-3.8-21-7.2-21.3-7.5-.4-.3 8.6-9.8 19.8-21.1 17.3-17.3 20.7-20.2 21.5-18.8.6.9 3.2 5 5.8 9zM407 402.2c0 .3-9.6 3.8-21.3 7.7-13.4 4.5-22.1 7.9-23.5 9.3s-4.8 10.1-9.3 23.5c-3.9 11.7-7.4 21.3-7.8 21.3s-13.7-12.7-29.6-28.3l-28.8-28.2 3.4-5.1c3.4-5 3.5-5 7.4-4.1 7.2 1.6 23.3.3 31.2-2.5 14.2-5 25.9-14.9 33.9-28.5l3.7-6.4 20.4 20.3c11.2 11.1 20.3 20.6 20.3 21z"/>
        <path d="M219.1 186.6c-15.9 4.3-25.9 10.2-38.7 22.9-8.3 8.3-10.8 11.6-14.7 19.1-7.5 14.7-10 24.4-10 39.9-.1 18.5 4 32.8 13.7 47.3 15.9 23.9 42.5 38.2 71.1 38.2 57.2 0 98.2-55.2 81.4-109.7-2-6.3-4.7-9.3-9.7-10.6-3.3-.8-8.5.9-11 3.6-3.6 3.9-4.1 7.4-2.1 15.7 2.3 9.2 2.4 22.5.4 30.5-5.8 22.7-24.1 40.3-46.7 44.9-9.7 2-14.9 2-24.6 0-11.9-2.4-21.4-7.5-30.3-16.4-12-12-17.9-26.1-17.9-43 0-26.5 16.3-49.1 41.4-57.5 4.1-1.4 8.4-2.5 9.4-2.5 3 0 7.9-4.6 9.2-8.5 1.5-4.6-.1-9.6-4.1-13-3.6-2.9-8.3-3.2-16.8-.9z"/>
        <path d="M272.3 193.5c-3.9 1.7-7.3 6.8-7.3 11.1 0 6.8 8.2 13.6 14.6 12 1.5-.4 4.2-2.2 6.1-4.1 2.7-2.7 3.3-4 3.3-7.8 0-5.3-2.7-9.3-7.6-11.3-4.1-1.7-5-1.7-9.1.1z"/>
    </g>
</svg>