<svg version="1.0" xmlns="http://www.w3.org/2000/svg" width="32" height="32" viewBox="0 0 500 500">
    <g fill="#1a8cff">
        <path d="M243.9 1c-11.4 1.9-8.3-.9-126.1 116.8C12.4 223.2 6.9 228.8 3.9 235.3c-4.5 9.8-4.5 19.6 0 29.4 3 6.5 8.5 12.1 113.9 117.5s111 110.9 117.5 113.9c5.9 2.7 8 3.2 14.7 3.2s8.8-.5 14.7-3.2c6.5-3 12.1-8.5 117.5-113.9C500.9 263.4 497 267.6 499 255.3c1.1-6.7-.3-14.9-3.7-21.8-2-3.9-25.8-28.3-113.1-115.7C277.9 13.5 271.1 6.9 265 4.1 257.8.9 250.8-.2 243.9 1zm9.8 23c4.3 1.6 221 218.7 222.4 222.7.7 2.4.7 4.2 0 6.5-1.4 4.2-218.1 221.2-222.5 222.8-1.6.6-4.3.8-6 .4-4.2-.8-222-218.2-223.7-223.1-.7-2.4-.7-4.2 0-6.6.8-2.3 32.9-35 110.3-112.4C194.3 74.2 244.6 24.6 246 24.1c3.3-1.3 4.3-1.3 7.7-.1z"/>
        <path d="M246 72.7c-3.7.7-20.6 18-21.5 22.1-.9 4.5 2 10.2 6.6 12.6 5.9 3.2 9.9 1.4 20.1-9.2 9.5-9.8 10.8-12.8 8.4-18.5-2.2-5.4-7.6-8.1-13.6-7zM273.7 126.4c-1.5.8-29.7 27.9-62.7 60.1-43.5 42.6-60.2 59.6-61 62-1.5 4.5.7 9.8 5.2 12.5 3.1 1.9 5 2 28.1 2H208v51.2c0 49.1.1 51.4 2 54.5 1 1.8 3.3 3.9 5.1 4.8 6.6 3.4 7.6 2.7 39.7-27.8 16.3-15.5 43.9-41.7 61.2-58.1 17.3-16.5 32-30.7 32.7-31.6 1.2-1.7 1.7-4.8 1.5-8.7-.1-1.2-1.6-3.6-3.4-5.3l-3.2-3.2-26.8.3-26.8.4-.2-53.7-.3-53.8-3-3c-3.7-3.7-8.8-4.7-12.8-2.6zm-6.7 83.1c0 49.6-.1 48.8 6.7 52 3.3 1.6 5.5 1.7 19.5 1.1 8.7-.4 15.8-.5 15.8-.2 0 .2-17.4 17-38.7 37.2l-38.8 36.8-.5-44.4c-.4-33.6-.8-45.1-1.8-46.7-2.5-4.5-5.9-5.3-23.2-5.3-8.8 0-16-.3-15.9-.8.2-1 75.2-74.1 76.2-74.2.4 0 .7 20 .7 44.5z"/>
        <path d="M140.5 172.4c-1.6.8-19.8 18.2-40.2 38.8L63 248.6v9.8l36 36.1 36 36h4.9c3.9 0 5.5-.5 7.5-2.4 3.2-3 4.6-7.6 3.4-11.6-.5-2-10.4-12.6-30.3-32.5-16.2-16.2-29.5-30-29.5-30.5s14.6-15.6 32.5-33.5c32.5-32.5 32.5-32.6 32.5-36.8 0-5.2-2.3-9-6.7-10.8-4-1.7-5-1.7-8.8 0zM353.9 178.3c-4.1 2.7-6 7.8-4.8 12.2.6 2 10.5 12.6 30.4 32.5 16.2 16.2 29.5 30 29.5 30.5s-13.3 14.3-29.5 30.5c-19.9 19.9-29.8 30.5-30.3 32.5-1.2 4 .2 8.6 3.4 11.6 2 1.9 3.6 2.4 7.5 2.4h4.9l36-36 36-36.1v-9.8l-34.7-34.9c-19.2-19.2-36-35.5-37.5-36.3-3.8-2-7-1.7-10.9.9zM257.5 401.2c-3.1 1.7-18.5 17-20.1 20-2.4 4.7-1.8 10.2 1.6 13.6 3.1 3.2 6.4 4.2 10.7 3.4 3-.6 20.6-17 22.9-21.4 5-9.6-5.8-20.7-15.1-15.6z"/>
    </g>
</svg>