<svg version="1.0" xmlns="http://www.w3.org/2000/svg" viewBox="0 0 456 500" fill="#1a8bff">
    <path d="M208.2 13.3 196 25.5v13l12.3 12.3L220.6 63l7.7-3.1 7.7-3.1V41h2.8c12.7 0 37.4 4.8 55.2 10.6 91.5 30 151 121.4 142 217.9-4.4 46.7-24.7 91.2-57 124.9-33.3 34.8-76.8 56.9-124.3 63.1-6.5.8-15.2 1.5-19.3 1.5H228v18h7c15 0 37.3-3.5 55.5-8.7 74.7-21.4 135-82 155.8-156.8 21.7-77.6.8-161.1-54.7-218.4-39.1-40.3-88.2-64.1-143-69.3l-12.5-1.2-.3-8-.3-7.9-6.9-2.9c-3.8-1.5-7.2-2.8-7.5-2.8-.4 0-6.1 5.5-12.9 12.3zM131 45.3C115.3 53.1 92 67.9 92 70c0 .5 7.9 11.2 9.5 12.8.2.2 5.2-2.6 11.1-6.3 5.9-3.7 16.7-9.7 24-13.2 7.4-3.6 13.4-7 13.3-7.7-.1-2.7-5.8-15.1-7-15.3-.8-.1-6.1 2.1-11.9 5z"/>
    <path d="M157.5 129.6c-61.7 35.6-65.2 37.8-67.3 41.7l-2.2 4.2v149l2.2 4.2c2.1 4 5.5 6.1 66.8 41.5 60.9 35.2 64.8 37.3 70 37.6l5.5.3 65.1-37.5c59.1-34.2 65.2-37.9 67.2-41.5l2.2-3.9V174.5l-2.3-3.8c-2.1-3.4-9.8-8.2-67.2-41.3-62.2-35.9-65-37.4-69.9-37.4-4.9 0-8 1.7-70.1 37.6zm123.9 11.1c29.2 16.8 54.4 31.4 55.9 32.4l2.8 1.7-23.3 13.2c-12.8 7.3-23.8 13.8-24.5 14.4-.9.8-.3 2.8 2.8 8.3 2.2 4 4.4 7.3 4.8 7.3.3 0 11.6-6.3 24.9-13.9l24.2-14v65.2l-.1 65.2-55.7 32.1-55.7 32.1-.3-35.9-.2-35.8h-18v36.1c0 19.8-.4 35.9-.8 35.7-2.2-.9-109.9-63.2-111-64.2-.9-.9-1.2-15.1-1-66.9l.3-65.7 26.4 15.1c26.3 15.2 26.4 15.2 28 13.1 3.2-4.3 7.6-13.5 6.6-13.9-3.4-1.3-48.8-28-48.9-28.7-.1-.9 107-63.4 108.8-63.5.4-.1 24.7 13.7 54 30.6z"/>
    <path d="m220.8 205.7-.3 44.7-22 12.7c-12.1 7.1-22.4 13-22.9 13.2-.9.3 7 15.7 8 15.7.2 0 11.9-6.6 25.8-14.7 21.7-12.5 25.7-15.2 27.5-18.4 2-3.6 2.1-4.9 2.1-50.8V161h-18l-.2 44.7zM40.3 123.2c-11.6 17.8-23.5 41.1-21.7 42.7 1.1.9 13.2 6.1 14.4 6.1.4 0 3.6-5.7 7-12.8 3.3-7 9.5-17.8 13.7-24 4.1-6.2 7.3-11.5 7.1-11.6-2.5-2.2-13.2-9.6-13.7-9.6-.4 0-3.4 4.2-6.8 9.2zM1.4 230.2c-.3 2.4-.6 11.9-.6 21.3.2 52.2 17.7 100.9 50.9 142 4.5 5.5 10.9 12.7 14.3 16l6.1 6 5.8-6.5 5.8-6.5-7.9-8.5c-27.4-29.2-45.3-63.9-53.2-103.1-3.1-15.2-4.7-37.9-3.6-51.9.4-5.8.6-10.6.5-10.8-.4-.4-12.4-2.2-15.2-2.2-1.7 0-2.3.8-2.9 4.2zM403.8 440.3l-7.8 3.2V459h-28v18h27.9l.3 8.1.3 8 7 3c3.8 1.6 7.4 2.9 8 2.9.6 0 6.5-5.5 13.3-12.3l12.2-12.2v-12l-12.7-12.7-12.8-12.7-7.7 3.2zm12.7 28.2c0 1-.6 2-1.2 2.2-.8.3-1.3-.5-1.3-2.2 0-1.7.5-2.5 1.3-2.3.6.3 1.2 1.3 1.2 2.3zM30 468v9h50v-18H30v9zM130 468v9h50v-18h-50v9z"/>
</svg>