<svg xmlns="http://www.w3.org/2000/svg" width="29.5" height="29.5">
    <defs>
        <style>.a, .b {
            fill: none;
            stroke: #1a8cff;
            stroke-linecap: round;
            stroke-width: 1.5px
        }

        .a {
            stroke-linejoin: round
        }

        .b {
            stroke-linejoin: bevel
        }</style>
    </defs>
    <g transform="translate(25.799 -2.25)">
        <circle class="a" cx="1.556" cy="1.556" r="1.556" transform="translate(-.161 16.201)"/>
        <path class="a" d="M-2.18 24h3.576v-4.688"/>
        <circle class="a" cx="1.556" cy="1.556" r="1.556" transform="translate(-1.058 3.837)"/>
        <path class="a" d="M-1.057 5.322h-3.112V8.4"/>
        <circle class="a" cx="4.668" cy="4.668" r="4.668" transform="translate(-15.751 10.064)"/>
        <path class="a"
              d="M-22.503 31c0-5.315 3.382-8.829 7.707-9.336l3.793 5.6 3.794-5.6C-2.884 22.171.498 25.615.498 31z"/>
        <path class="a" d="M-7.214 21.698v5.386h-3.794M-11.048 27.084h-3.811v-5.386"/>
        <path class="b" d="M-11.053 26.798v4.201"/>
        <path class="a" d="M-5.395 22.202a9.355 9.355 0 0 0 3.711-7.467 9.367 9.367 0 0 0-9.367-9.367"/>
        <path class="a" d="M-16.631 22.232a9.352 9.352 0 0 1-3.752-7.5 9.367 9.367 0 0 1 9.367-9.367"/>
        <circle class="a" cx="1.556" cy="1.556" r="1.556" transform="translate(-25.049 20.904)"/>
        <circle class="a" cx="1.556" cy="1.556" r="1.556" transform="translate(-22.669 3)"/>
        <path class="a" d="M-21.113 6.112v3.112h2.541M-20.244 15.443h-3.246v5.446"/>
        <path class="b" d="M-14.859 21.683h7.66"/>
    </g>
</svg>