<svg version="1.0" xmlns="http://www.w3.org/2000/svg" viewBox="0 0 468 500" fill="#1a8bff">
    <path d="m227 3.8-6.5 2.8-.3 8-.3 8.1-9.7.6C165.7 26.1 119.3 44.2 81 73.8c-18.4 14.3-41.7 40.4-54.8 61.3l-4.1 6.7 1.7 6.2 1.7 6.1L44 164.9c10.2 5.9 18.4 11.2 18.3 11.7-.2.5-2.3 5.8-4.7 11.9-5.4 13.2-9 26.9-11.2 42.5-2.4 16.7-1.4 44.1 2 60.6 10.7 50.9 41.4 93.9 86.1 120.9 22.6 13.7 50 22.4 78.3 25.1l7.2.7v43l-10.4-.6c-53.5-3.3-110.5-32.3-147.2-75-9.7-11.3-24.6-32.5-23.8-33.8.2-.4 3.4-2.4 7-4.4 6.5-3.6 6.5-3.7 6-7.3-.3-2.1-.8-5.8-1.2-8.3l-.6-4.6-16.6-4.5-16.7-4.5-5.7 3.1-5.6 3.1-2.6 9.6c-1.9 7-2.6 12-2.6 18.5l.1 8.9 4.3 3.2c2.4 1.8 4.6 3.3 5 3.3.4 0 3.5-1.6 6.8-3.5 3.3-2 6.2-3.5 6.3-3.3.2.2 3.9 5.7 8.3 12.3 32.7 49.1 82.8 84.4 140.1 99 13.3 3.4 26.1 5.3 43 6.6l14.4 1.1 4.8-4.8 4.9-4.8v-26.3c0-15.9.4-26.3.9-26.3.6 0 6.1-.7 12.4-1.5 70.2-9.2 128.9-58.2 150.5-125.6 13.2-41 11.4-85.3-4.8-124.8-2.2-5.2-3.8-9.6-3.7-9.7.1-.1 7.1-4.1 15.5-8.9 12.4-7.1 15.5-8.6 16.3-7.4 2.4 3.8 10.1 22.6 13.4 32.9 8 24.9 11.1 47.5 10.2 75.5-.8 24.3-4 42.3-11.6 64.7-3.9 11.5-12.1 29.8-13.3 29.8-.6 0-3.6-1.6-6.8-3.5-3.2-1.9-6.2-3.5-6.7-3.5-1 0-12.6 8.8-13 9.8-.3.8 8.3 33.2 8.9 33.6 2.7 2 10.1 5.6 11.3 5.6 1 0 8.8-1.9 17.5-4.2l15.8-4.2.7-6.5c.3-3.6.8-7.3 1.1-8.2.3-1.2-1.3-2.7-6.1-5.3-3.6-2.1-6.5-3.9-6.5-4 0-.2 1.8-4.4 4.1-9.3 9.7-20.8 16.7-43.6 20.6-66.8 2.8-17 2.6-56.5-.5-73.5-4.7-26.1-10.9-45.3-21.9-67.7-6.2-12.6-6.7-13.3-10.2-14.3-9.3-2.5-8.4-2.8-28.5 8.9l-18.9 11-6.1-8.9c-26.7-38.9-68.1-66.5-114.2-76-53.4-11.1-109.9 2.9-152.7 37.7-12.7 10.4-33.2 33.8-39.6 45.1-.5.9-4.7-1.1-14.9-6.9-7.8-4.5-14.2-8.7-14.2-9.3.1-1.7 11.8-17.6 20.4-27.6 36-41.7 92.7-70.1 146.8-73.7l9.7-.6.3 7.8.3 7.9 7.3 3 7.3 3L247.5 50 260 37.5v-12l-12.3-12.3C241 6.5 235 1 234.5 1c-.6 0-3.9 1.3-7.5 2.8zm12.9 26.6c.9 1 .8 1.6-.4 2.6-1.3 1.1-1.5.8-1.5-1.4 0-3 .3-3.2 1.9-1.2zm4.6 60.6c42.3 4.7 78.4 23.3 106.8 54.9 8.1 9 18 23.2 17 24.2-1.3 1.3-25.4 14.9-26.4 14.9-.4 0-2.6-2.6-4.7-5.8-20-29.3-53.8-50.2-90.2-55.7-16.2-2.5-17.8-2.3-23.3 3.3l-4.7 4.8-.2 56.7-.3 56.7-64.9-37.5c-35.8-20.6-65.4-37.9-65.8-38.3-1.6-1.6 11.6-18.6 23.7-30.8 18.5-18.5 39.1-31.3 63.4-39.4 23.6-7.9 46.8-10.5 69.6-8zm7.7 51.6c13.6 2.8 28.9 9.3 41.2 17.7 10.4 7.1 24.4 21.4 31 31.8l1.7 2.7-40.8 23.5c-22.4 12.9-42.5 24.5-44.5 25.7l-3.8 2.2V140l4.3.6c2.3.4 7.2 1.2 10.9 2zm-159.9 50c7.2 4.3 13.4 7.8 13.6 8 .1.1-1.3 4.7-3.2 10.1-5.8 16.5-7.2 24.6-7.2 44.3 0 23.8 3.4 39.1 12.9 58.2l4.1 8.3 6.5 1.6c5.2 1.2 6.9 1.3 8.5.3 1.1-.6 21.4-12.3 45-26 23.7-13.6 44-25.4 45.3-26.2l2.2-1.4v150.4l-7.2-.7C144.8 413 87.2 365.3 69 300.3c-4.9-17.5-6.3-30.2-5.7-50.8.6-18.5 2.3-29.7 6.8-43.5 2.5-7.7 7.9-21 8.5-21 .2 0 6.4 3.4 13.7 7.6zm289.1 2.6c7.8 20.4 10.9 37.2 10.9 59.3.1 23.2-3.4 42-11.4 62-21.8 54.5-72 93.9-130 102-6 .8-11.4 1.5-11.9 1.5-.6 0-1-6.3-1-15.8v-15.8l10.5-1.6c25.7-4.1 50.6-16.2 69.8-33.9 7.5-6.9 18-19.5 22.6-27.2 2.3-3.7 2.3-3.8.6-10.1l-1.7-6.2-44-25.4c-41.8-24.1-43.9-25.5-41.9-26.9 4.1-2.7 122.6-71 123.3-71.1.3 0 2.2 4.2 4.2 9.2zm-216.2 39.6c28.4 16.4 39.4 23.2 38.5 23.9-2.6 2.1-76.9 44.5-78.6 45-1.5.4-2.4-.9-4.9-7.9-5.6-15.6-6.7-22.6-6.6-41.8.1-15.5.4-18.6 2.6-27 3.8-13.7 5.4-17.3 7.6-16.1.9.5 19.6 11.3 41.4 23.9zM322.3 320c1.2 1.1-10 14.7-17.4 21.1-17.4 15.2-40.2 25.7-61.6 28.4l-5.3.7v-99l41.8 24c22.9 13.3 42.1 24.4 42.5 24.8zM22.5 358.9c.3.6-.4 1.5-1.5 2.1-2.2 1.2-2.3 1-1.4-1.4.7-1.8 2-2.1 2.9-.7zm400.7 26.3c-1.3 1.3-3.2.2-3.2-1.8 0-1.2.4-1.3 2.1-.3 1.4.7 1.8 1.4 1.1 2.1z"/>
    <path d="M173.7 133.4c-4.2 1.9-11.1 5.5-15.3 8.1-7.2 4.5-21.6 15.4-22.7 17.2-.3.4 2.1 3.7 5.3 7.2l5.8 6.3 6.9-5.5c9.3-7.5 17.8-12.8 26.6-16.7l7.5-3.3-2.9-8.1c-1.7-4.4-3.1-8.2-3.2-8.3-.2-.1-3.7 1.3-8 3.1zM147.9 348.3c-2.4 2.9-5 5.9-5.7 6.8-1 1.4 0 2.5 7.5 7.9 8.4 6 28 16.3 33.3 17.5 2.4.6 2.7.2 4.9-6.7 1.3-4 2.6-7.8 2.8-8.4.2-.6-.8-1.5-2.4-1.9-5.1-1.2-19.5-8.8-26.8-14-3.9-2.9-7.6-5.5-8.2-5.8-.5-.3-3 1.7-5.4 4.6zM350 233c-7.4 1.4-8.5 1.8-8.3 3.5 1.8 14.1 1.1 34-1.3 43.1-.5 2 .1 2.3 7.3 3.9 4.3.9 8.2 1.8 8.8 1.9 3 .4 5.5-40.9 2.9-50.4l-.9-3.5-8.5 1.5z"/>
</svg>