<svg version="1.0" xmlns="http://www.w3.org/2000/svg" viewBox="0 0 529 500" fill="#1a8bff">
    <path d="M498.6 1.1c-5.6 1.3-10.3 4.6-13.8 9.3-2.6 3.7-3.7 4.3-10.1 5.9-23.2 5.7-40.6 21.9-48.5 45.2l-2.7 8-.5 97-.5 97-2.3 3.7c-1.4 2.2-4 4.5-6.7 5.8-4.1 2-5.7 2.1-23.8 1.8l-19.4-.3-3.6-2.8c-7.5-5.7-7.1-2.3-7.7-68.7l-.5-59.5-3.3-6.7c-4-8.2-11.9-15.7-20-19-5.4-2.2-7-2.3-28.7-2.3h-23l-6.7 3.2c-7.5 3.5-14.6 10-17.7 16.2-5.2 10.1-5.1 7.9-5.1 117.8 0 100 0 102.5-2 106.3-4.3 8.4-11.1 10.4-33.4 9.8-10-.2-15.9-.8-17.6-1.7-3.6-2-8-6.2-9.4-9.1-.8-1.8-1.2-20.3-1.6-62l-.5-59.5-3.2-6.6c-3.9-8-11.1-15-19.1-18.7-5.7-2.7-5.8-2.7-29.7-2.7h-24l-5.6 2.8c-8.8 4.3-14.3 9.8-18.6 18.5l-3.8 7.6-.5 96.5-.5 96.6-3.7 7.8c-6 12.6-18.5 23.1-30.2 25.2-3.5.7-3.9.5-7.3-3.4-5.3-6.2-10.4-8.5-18.8-8.6-5.9 0-7.7.4-11.8 2.8C1.5 460.9-2.7 474.6 3 486c2.1 4.1 7.3 9.2 11.5 11.3 10.3 5 23.8 1.3 30.2-8.4 2-3.1 3.2-3.8 7.8-4.7 19.5-3.9 37.1-17.6 46-35.7 7.3-14.7 6.9-8.5 7.5-114 .4-72.4.8-95.5 1.7-97.1 1.9-3.4 7-7.2 11.1-8.5 2.3-.7 10.3-.9 21.3-.7 17.1.3 17.7.4 21.6 3 8 5.3 7.7 2.7 8.3 69.8l.5 59.5 3.3 6.7c4 8.2 11.9 15.7 20 19 5.4 2.2 7 2.3 28.7 2.3 22.9 0 23 0 28.7-2.7 7.6-3.5 12.1-7.2 16.3-13.3 7.5-10.9 6.9-1.9 7.5-120.1l.5-106.1 2.8-3.6c5.1-6.8 6.9-7.2 28.2-7.2 20.4 0 22.3.4 27.2 5.7 5.3 5.7 5.3 5.3 5.3 66.2 0 49.1.2 57.2 1.6 61.3 3.7 11.2 12.1 20.1 23.1 24.4 5.1 2 8.1 2.3 23.8 2.7 10.4.2 20.5-.1 23.8-.7 16-2.9 28.7-15.4 31.7-31 .6-3.4 1-39.6 1-98.3 0-91.1 0-93 2.1-99 4-12.1 11.8-21.1 23-26.8 3-1.6 7.2-3.2 9.3-3.5 3.5-.7 3.9-.5 7.3 3.4 1.9 2.3 5.3 5.1 7.5 6.2 16.2 8.2 35.2-3.4 35.2-21.6-.1-15.3-15-27-29.8-23.4zm8.9 23.4c0 2.4-.5 3.1-2.4 3.3-3.2.5-5.4-2.3-4-5 .7-1.3 1.9-1.8 3.7-1.6 2.3.2 2.7.8 2.7 3.3zm-480 451c0 2.7-.3 3-3 3-2.1 0-3.1-.5-3.3-1.8-.6-3.3.6-4.9 3.5-4.5 2.4.3 2.8.8 2.8 3.3z"/>
    <path d="M72.5 15C42.8 18.9 19.4 42.4 15 72.7c-.6 4.2-1 67.9-1 167.5V401h21V237.7c0-147.3.2-163.9 1.6-168.8 4.9-16.6 15.7-27.4 32.3-32.3 4.9-1.4 21.7-1.6 170.8-1.6H405V14l-163.2.1c-89.8.1-166 .5-169.3.9z"/>
    <path d="M142 81v14h20V67h-20v14zM493.8 262.2l-.3 167.3-2.3 5.7c-5.4 13.3-16.5 23.7-29.9 27.8-6.4 2-9.1 2-171.9 2H124v21.1l167.3-.4c187-.3 170.6.4 186.7-7.5 10.6-5.1 24.1-18.6 29.2-29.2 7.9-16.1 7.2.3 7.5-186.8l.4-167.2H494l-.2 167.2zM127.3 127.6l-8.2 8.4 4.7 8c2.6 4.4 5.2 8 5.7 8 3.3.1 22.5-19.2 22.5-22.5 0-.8-13.7-9.5-15.9-10.2-.4 0-4.3 3.7-8.8 8.3zM68 151.5V162h27v-21H68v10.5z"/>
    <path d="M434 348.5V359h28v-21h-28v10.5zM392.5 352.8c-6 4.8-15.5 15.7-15.5 17.7 0 .5 3.6 3.1 8 5.7l8 4.7 8.5-8.4 8.4-8.5-4.7-8c-2.6-4.4-5.2-8-5.7-8-.6 0-3.8 2.1-7 4.8zM367 419v14h21v-28h-21v14z"/>
</svg>