<svg version="1.0" xmlns="http://www.w3.org/2000/svg" width="32" height="32" viewBox="0 0 500 500">
    <g fill="#1a8cff">
        <path d="M232.1 1.1c-14.2 1-34.2 4.4-38.1 6.4-3.6 1.9-6 6.2-6 10.9 0 4.3 4.7 10.2 8.8 11.1 1.5.3 8.1-.4 14.7-1.6 15.1-2.7 47.3-3.7 62.6-2 34 3.9 67.9 15.5 94.9 32.6l5.5 3.5H169V50c0-13.9-1.2-17.9-6.2-21-3.2-2-4.4-2.1-41.8-1.8-38.4.3-38.5.3-45 2.9C59.2 36.6 47.4 48.9 41.9 66c-1.9 5.6-2.2 9.6-2.7 28.8l-.4 22.4-3.8 6.2C10.9 163.1-2.4 217.7.9 264 2 279.3 3.2 283 8 285.5c4.9 2.5 9.5 1.9 13.7-1.8l3.6-3.3.2-28.5c.2-33.8 1.9-46.1 10.3-71.9l2.7-8.5L39 293c.5 114.3.6 121.8 2.4 127 2.9 8.9 7.6 16.7 13.5 22.9 6.2 6.4 12.1 10.2 22 14l6.6 2.6 123.9.5 123.8.5-9.8 3.2c-14.6 4.8-28.8 8-43.6 9.9-17.9 2.2-49.2 1.5-66.3-1.5-6.6-1.2-13.2-1.9-14.7-1.6-4.1.9-8.8 6.8-8.8 11.1 0 4.7 2.4 9 6 10.9 4.3 2.2 23.8 5.3 41 6.5 48.4 3.2 100.2-9.3 141.6-34.1l8.2-4.9h19.5c10.8 0 22-.5 24.9-1.1 15.9-3.4 28.2-16.3 30.8-32.5.6-3.2 1-14.3 1-24.6V383l4-6.5c24.2-39.6 37.2-93.4 34-141.2-2.7-40.6-14.8-80.5-33.8-111.6-3.8-6.1-3.9-6.5-4.4-18.2-.9-17.9-5.1-27.2-16.1-35.5-6.5-4.9-12.8-7.1-22.7-7.7-7.5-.5-8.9-.9-11.5-3.3-5.2-4.7-18.6-14.5-28-20.4C347.6 16.7 308.3 4 265.5 1c-15.4-1.1-16.9-1.1-33.4.1zM144 201v150h-29.2c-33.4 0-35.6.4-50 7.8-.5.2-.8-63.7-.8-142V74.5l2.4-5c4.3-9.3 10.5-14.7 19.6-17.1 3-.9 13.5-1.3 31.3-1.3L144 51v150zM429.8 88.8c6.7 4.8 6.2-8.6 6.2 172.4 0 161.2 0 164.4-2 167.5-1 1.8-3.4 4-5.2 5-3.1 1.7-11.5 1.8-172.3 1.8h-169l-6.7-3.3C70.3 427.1 65 419 64.2 407.4c-.7-10.3 1.6-16.3 8.7-23.5 8.9-8.8 9.3-8.9 50.5-8.9 39.3 0 40.1-.1 43.8-7.1 1.7-3.2 1.8-9.7 1.8-142.6V86l128.8.2 128.7.3 3.3 2.3zm40.1 112c8.5 37.8 6.5 82-5.3 117.5l-3.4 10.2v-157l3.4 10.2c1.8 5.6 4.3 14.2 5.3 19.1z"/>
        <path d="M97.5 78.9c-1.1.5-3.1 2.1-4.5 3.6l-2.5 2.7-.3 114.6c-.2 84.5.1 115.4.9 117.5 2.5 6 12.3 8.9 17.7 5.1 5.5-3.8 5.2 2.1 5.2-121.9V86l-3.3-3.6c-3.4-3.7-9.2-5.3-13.2-3.5zM368.8 114.8c-8 4.9-6.9 17.2 1.8 20.8 4.3 1.8 12.5 1.8 16.9 0 4-1.7 7.5-6.8 7.5-10.9 0-4-2.6-8.4-6-10.2-4.1-2.1-16.6-2-20.2.3zM233.5 137.4c-9.8 2.5-16.7 7.8-21.6 16.8-3.2 5.9-3.4 6.9-3.4 15.3 0 7.1.5 10 2.2 13.7 3 6.6 9.6 13.3 16.2 16.5 7.5 3.7 20 4 27.3.6 17.9-8.2 25.3-29.6 16-46.6-6.8-12.7-22.9-19.8-36.7-16.3zm14 26.1c3.8 3.7 3.5 9.5-.6 12.9-4.1 3.5-8.3 3.4-12-.3-3.3-3.3-3.7-6.7-1.4-11.1 1.7-3.3 2.7-3.8 7.8-3.9 2.8-.1 4.5.6 6.2 2.4zM305.8 159.6c-5.1 2.7-7.2 10-4.5 15.4.7 1.3 2.8 3.5 4.6 4.7 3.4 2.3 3.5 2.3 40.8 2.3 41.4 0 42.6-.2 46.3-6.2 2.5-4.2 2.5-8.5.1-12.2-3.7-5.6-3.4-5.5-45.6-5.5-32.6 0-39.4.2-41.7 1.5zM372.3 204.7c-3.2.6-8 5.7-8.8 9.3-.9 4.2 1.1 9.6 4.6 12.1 4.1 2.9 14 3.7 19.1 1.6 7.2-3 9.8-11.4 5.5-17.8-3.3-4.9-11.3-7-20.4-5.2zM230.9 231.5c-15 4.8-25.1 19.8-23.5 34.9.8 8.3 4.6 15.5 11.2 21.5 12.8 11.7 31 11.7 43.9 0 7.8-7.2 10.9-14.1 10.9-24.4 0-9.7-2.9-17-9.4-23.5-8.3-8.3-22.4-11.9-33.1-8.5zm14.1 24c8 4.2 4.7 16.7-4.5 16.7s-12.6-12.4-4.6-16.7c3.4-1.8 5.5-1.8 9.1 0zM306.3 252.5c-3.6 1.6-7.3 6.8-7.3 10.3 0 3.8 3 9.2 6.1 10.7 4.3 2.3 80.5 2.2 83.7-.1 5.3-3.7 6.7-13 2.5-17.6-4-4.6-6.1-4.8-45-4.8-29.3.1-37.5.4-40 1.5zM370.3 301.5c-6 2.6-8.7 9.8-5.8 15.9 2.4 5 5.9 6.6 14.5 6.6 8.2 0 12.3-1.7 14.5-6 3.2-6.2.4-13.9-6-16.6-4.3-1.8-13-1.8-17.2.1zM229 327.2c-7.7 3-16 11.4-18.9 19.3-4.6 12.1-1.4 26.4 8 35.5 21 20.4 56.1 5.4 56.1-24-.1-13.2-6.7-23.6-19.2-30-6.6-3.4-18.5-3.8-26-.8zm16.3 23c3.4 1.8 4.6 3.9 4.7 8.1 0 2.7-.7 4.5-2.5 6.2-2.7 2.8-8.8 3.4-11.6 1.2-4.7-3.6-5.1-9.7-1-13.8 3.1-3.1 6.7-3.7 10.4-1.7zM307.4 347c-6.3 2.6-9.2 11.1-5.8 17 3.6 6 3.4 6 46.3 6H387l3.8-3.4c3.3-3.1 3.7-3.9 3.7-8.5 0-4.4-.4-5.5-3.3-8.3l-3.2-3.3-39.3-.2c-21.5-.1-40.1.2-41.3.7zM370.3 389.5c-8.5 3.7-9.4 16.1-1.4 20.8 3.8 2.2 16 2.3 20.1.2 3.4-1.8 6-6.2 6-10.2 0-4.1-3.5-9.2-7.5-10.9-4.3-1.8-13-1.8-17.2.1z"/>
    </g>
</svg>