<svg version="1.0" xmlns="http://www.w3.org/2000/svg" width="32" height="32" viewBox="0 0 500 500">
    <path fill="#1a8cff"
          d="M50.5.6c-1.1.2-4.5.9-7.5 1.5C24.2 5.9 6.9 23.1 1.9 43c-2.1 8.2-2.1 405.8 0 414 5 19.8 21.3 36.1 41.1 41.1 8.2 2.1 405.8 2.1 414 0 19.8-5 36.1-21.3 41.1-41.1 2.1-8.2 2.1-405.8 0-414-4.8-19.2-19.8-34.6-39.6-40.9C454 .7 432.3.5 253 .4 142.7.3 51.6.4 50.5.6zm405.2 29.3c6.5 2.9 12.4 9.1 14.9 15.7 1.8 4.8 1.9 10.6 1.9 204.4s-.1 199.6-1.9 204.4c-2.5 6.6-8.4 12.8-14.9 15.7l-5.2 2.4h-401l-5.2-2.4c-6.5-2.9-12.4-9.1-14.9-15.7-1.8-4.8-1.9-10.6-1.9-204.4 0-193.3.1-199.7 1.9-204.4 3.4-8.8 11-15.3 20.3-17.5 2.2-.5 88.6-.8 202.3-.8l198.5.2 5.2 2.4z"/>
    <path fill="#1a8cff"
          d="M80.2 56.7c-3.5.7-8.9 6.6-9.6 10.7-.9 4.5 1.1 9.4 5.3 12.9l3.3 2.7h25.1c28.3 0 29.7-.3 33-7.3 2.3-4.8 2.1-8.8-.6-12.8-4.3-6.4-6.5-6.9-31.7-6.8-12.4.1-23.5.4-24.8.6zM183 57.8c-7.3 3.6-10 12.3-6 18.9 3.7 6.1 5.3 6.4 33.5 6.1l25.4-.3 3-2.9c7.1-6.8 5.5-17.7-3.2-21.7-3.7-1.6-6.8-1.9-26.7-1.9-19.5 0-23 .2-26 1.8z"/>
    <path fill="#ab7c94"
          d="M354.3 57.9c-5 2.3-7.3 6.2-7.3 12.4 0 7.9 6.5 13.3 14.9 12.4 12.9-1.4 15.6-19.4 3.8-24.8-2.3-1-4.9-1.9-5.7-1.9s-3.4.9-5.7 1.9z"/>
    <path fill="#1a8cff"
          d="M411.5 57.4c-5 2.2-8.5 7.1-8.5 11.9 0 15.1 19.7 18.8 25.7 4.8 4.3-10-7.2-21.2-17.2-16.7zM99.3 114.4C85.2 118.9 73.9 131.9 71 147c-1.3 7-1.3 90 0 97 2.5 13 11.2 24.6 22.9 30.3l6.6 3.2h299l6.6-3.2c11.7-5.7 20.4-17.3 22.9-30.3 1.3-7 1.3-90 0-97.1-2.4-12.8-11.9-25.2-23.7-30.7l-5.8-2.7-148-.2c-120.4-.1-148.8.1-152.2 1.1zm297.8 28.3c5.9 5 5.9 5.1 5.9 52.8s0 47.8-5.9 52.8l-3.3 2.7H106.2l-3.3-2.7c-5.9-5-5.9-5.1-5.9-52.8s0-47.8 5.9-52.8l3.3-2.7h287.6l3.3 2.7z"/>
    <path fill="#1a8cff"
          d="M132.3 183c-4.5 2.7-6.6 6.4-6.6 11.6 0 5.3 2.4 9.1 7.4 11.6 3.2 1.7 10.8 1.8 116.4 1.8s113.2-.1 116.5-1.8c6.9-3.4 9.4-13.1 5-19.2-4.5-6.4 3.2-6-121.7-6-111 0-113.9.1-117 2zM88.9 308.6c-6.2 1.9-13.1 8.1-16 14.6l-2.4 5.3v94l2.4 5.3c1.4 3 4.3 6.9 6.8 9.2 8.1 7.1 7.3 7 66.3 7 60.7 0 58.9.2 67.7-8.5 8.3-8.4 8.3-8.4 8.3-60s0-51.6-8.3-60c-8.8-8.7-7-8.5-67.6-8.4-42.4 0-53.5.3-57.2 1.5zM195 375.5V417H97v-83h98v41.5zM272.4 335.4c-9.1 4-10.7 15.1-3.3 22.2l3 2.9h149.7l2.7-2.5c5.8-5.3 6.6-12.2 2.2-18.4-4-5.7-2.3-5.6-79.9-5.6-57.4.1-71.9.3-74.4 1.4zM272.4 391c-3.1 1.2-7.2 6.6-8 10.5-.8 4.2 1.9 10 5.9 12.9 2.7 2 4.2 2.1 43.3 2.4 44.9.3 45.6.2 49.5-6.2 2.6-4.3 2.5-11.5-.2-15-4.4-5.6-4.3-5.6-48.1-5.5-22.2 0-41.2.4-42.4.9zM409.3 391.9c-6 3.8-8.1 12.2-4.6 18.2 2.5 4.2 9.3 7.3 14 6.4 4.7-.8 9.8-6.1 10.7-10.9 2-10.7-10.9-19.5-20.1-13.7z"/>
</svg>