<svg xmlns="http://www.w3.org/2000/svg" width="28.498" height="28.753">
    <defs>
        <style>.a {
            fill: none;
            stroke: #1a8cff;
            stroke-linecap: round;
            stroke-width: 1.5px;
            stroke-linejoin: round
        }</style>
    </defs>
    <path class="a"
          d="M23.999 1.004 22.84 3.352l-2.591.376 1.875 1.828-.443 2.581 1.38-.726.937-.493 2.317 1.218-.443-2.581 1.877-1.827-2.591-.376-1.159-2.348"/>
    <g transform="translate(1.5 19.753)">
        <path class="a"
              d="M6.618 5.293a.88.88 0 0 1 .819-.876 3.567 3.567 0 0 0 0-1.335.876.876 0 0 1-.6-1.456A3.791 3.791 0 0 0 5.871.66a.876.876 0 0 1-1.456-.6 3.567 3.567 0 0 0-1.335 0 .876.876 0 0 1-1.456.6 3.791 3.791 0 0 0-.966.966.876.876 0 0 1-.6 1.456 3.567 3.567 0 0 0 0 1.335.876.876 0 0 1 .6 1.456 3.791 3.791 0 0 0 .966.966.876.876 0 0 1 1.456.6 3.567 3.567 0 0 0 1.335 0 .876.876 0 0 1 1.456-.6 3.791 3.791 0 0 0 .966-.966.877.877 0 0 1-.219-.58z"/>
        <circle class="a" cx="1.25" cy="1.25" r="1.25" transform="translate(2.5 2.5)"/>
    </g>
    <g transform="translate(6.526 7.418)">
        <circle class="a" cx="4.094" cy="4.094" r="4.094" transform="translate(3.619)"/>
        <path class="a" d="M0 13.166a7 7 0 0 1 4.644-2.482l3.069 6.9 3.07-6.9a7 7 0 0 1 5.066 3.048"/>
        <path transform="translate(7.713 10.68)"
              style="stroke-linejoin:bevel;fill:none;stroke:#1a8cff;stroke-linecap:round;stroke-width:1.5px"
              d="M0 0h3.069"/>
    </g>
    <path class="a"
          d="M3.85 15.994a10.636 10.636 0 0 1-.1-1.49 10.5 10.5 0 0 1 14.874-9.548M26.119 8.068a13.5 13.5 0 0 1-18.4 18.252"/>
    <path class="a" d="M2.431 21.034A13.5 13.5 0 0 1 21.796 3.309M24.062 10.765A10.5 10.5 0 0 1 8.957 23.573"/>
</svg>