<svg version="1.0" xmlns="http://www.w3.org/2000/svg" viewBox="0 0 500 500" fill="#1a8bff">
    <path d="M29.1 1C10.7 4.8-2.3 23.2 1 41c3.9 21.4 24.9 34.5 45 28.1l6.5-2.1 76 76 76 76 7.3-7.2 7.2-7.3-76-76-76-76 2.1-6.5c7.8-24.6-14.8-50.1-40-45zm14.7 22c4.6 2.8 7.6 9.7 6.6 15.3-.9 5.7-6.4 11.2-12.1 12.1-5.6 1-12.5-2-15.3-6.6-4.2-6.9-2.1-16.5 4.6-20.9 4-2.6 11.9-2.5 16.2.1z"/>
    <path d="M458 1.1c-20.6 4.1-33.3 25.3-27.1 44.9l2.1 6.5-57.3 57.2-57.2 57.3-42.2-42.2L234 82.5l-7 7-7 7 42.2 42.2 42.3 42.3-61.5 61.5-61.5 61.5-42-42-42-42-7 7-7 7 42 42 42 42-57.5 57.5-57.6 57.6-3.9-1.7c-2.6-1.2-6.8-1.8-12-1.8-6.7-.1-9 .3-14.1 2.7-7.7 3.6-14.5 10.4-18.1 18.2-2.3 5-2.7 7.4-2.8 14 0 7.1.4 8.8 3.3 14.7 8.3 16.9 27.2 24.4 44.6 17.8 11.2-4.3 19.9-15.5 22.1-28.7.7-4.5-.9-14.1-3-18.4-1.3-2.5-.6-3.3 56.1-60l57.4-57.4 44.5 44.5 44.5 44.5 7-7 7-7-44.5-44.5-44.5-44.5 61.5-61.5 61.5-61.5 44.3 44.3 44.2 44.2 7-7 7-7-44.3-44.3-44.2-44.2 57.3-57.2L447.5 67l6.5 2.1c22 7 45-9.8 45.3-33.1.2-21.9-20.2-39.2-41.3-34.9zm14.4 21.8c6.7 4.4 8.8 14 4.6 20.9-2.8 4.6-9.7 7.6-15.3 6.6-5.7-.9-11.2-6.4-12.1-12.1-1-5.6 2-12.5 6.6-15.3 4.3-2.6 12.2-2.7 16.2-.1zM42.7 451c10.5 4.7 11.4 19.7 1.7 26.1-3.9 2.5-11.9 2.5-16.1-.1-8.2-4.9-9-16.8-1.7-23.7 4.9-4.6 9.6-5.3 16.1-2.3zM110 35.5V46h27V25h-27v10.5zM165 35.5V46h28V25h-28v10.5z"/>
    <path d="M221 35.5V46h168V25H221v10.5zM26 248.5V390h20V107H26v141.5zM454 250v143h21V107h-21v143zM296.5 297l-7 7 71.7 71.8 71.8 71.7-2.1 6.5c-7.1 22.3 10 45.3 33.6 45.2 30.2 0 46-35.7 25.9-58.1-9.3-10.3-23.5-14.3-36.4-10.2l-6.5 2.1-71.5-71.5c-39.3-39.3-71.7-71.5-72-71.5-.3 0-3.7 3.2-7.5 7zm174.2 154c10.5 4.7 11.4 19.7 1.7 26.1-4 2.6-11.9 2.5-16.2-.1-7.5-4.6-9-15.8-3-22.6 4.7-5.4 10.7-6.5 17.5-3.4zM108 464.5V475h171v-21H108v10.5zM307 464.5V475h28v-21h-28v10.5zM363 464.5V475h27v-21h-27v10.5z"/>
</svg>