<svg version="1.0" xmlns="http://www.w3.org/2000/svg" viewBox="0 0 500 500" fill="#1a8bff">
    <path d="M31.4 1c-7 1.4-13.7 5.2-19.4 11C-.3 24.2-2.9 40.3 4.7 55.9c5.7 11.7 18.1 19.9 31.4 20.9l6.9.5V91h20V77h57.2l17.4 7.7 17.4 7.7v39.5l-11.3 11.3c-21.6 21.7-35.4 47-41.9 77.1-3.2 14.8-3.2 44.6 0 59.4 11.5 53.2 48.7 95.5 99.5 113.2 16.8 5.9 27.1 7.5 48.2 7.5 21 .1 29.4-1.1 46.5-6.6 45.9-14.7 83.1-51.9 97.8-97.8 5.5-17.1 6.7-25.5 6.6-46.5 0-15.7-.4-20.8-2.2-29.2-6.5-30.1-20.3-55.4-41.9-77.1L345 131.9V92.4l18-8 18.1-7.9-.3-9.4-.3-9.5-40.7-18-40.7-18.1 81.7-.3c44.9-.1 83.2 0 85 .3 4.3.8 10.8 6.7 12.3 11.2 1.7 5.4.7 12.6-2.5 16.8-5.1 6.7-6.4 7-32.8 7.3l-23.8.3V77h18v194h20V77.3l6.9-.5c13.3-1 25.7-9.2 31.4-20.9 7.6-15.5 5-31.7-7.3-43.9-6-6.1-12.4-9.6-20.2-11C461.6-.2 37.4-.2 31.4 1zm169.5 20.4c-.2.2-18.3 8.3-40.2 18l-39.9 17.7-43.6-.3c-39.4-.3-44-.5-46.9-2-9.8-5.4-12.3-19.1-5-27.5 1.7-2 4.5-4.2 6.2-4.9 2.4-1.1 19.7-1.3 86.4-1.4 45.9 0 83.2.2 83 .4zm98.8 22.7c27.4 12.1 50.1 22.4 50.5 22.8 1 .9-99.1 45.3-101.1 44.8-4.7-1.2-100-44.2-99.3-44.8.5-.6 98.7-44.6 99.9-44.8.2-.1 22.7 9.8 50 22zm-87.3 73.8c24.1 10.8 34.9 15.1 37.6 15.1 2.7 0 13.5-4.3 37.6-15.1 18.7-8.3 34.5-15.3 35.2-15.6.9-.4 1.2 4.1 1.2 20.4v21l-8.2 6.2c-27 20.1-61.1 26.7-94.3 18.1-10.5-2.7-30.4-12.6-38.5-19.3l-6.5-5.3-.3-20.8c-.2-16.5 0-20.7 1-20.3.7.3 16.5 7.3 35.2 15.6zm-46.1 43.4c3.4 2.8 7.5 6.1 9 7.2 2.7 2 2.7 2.1 1.4 6-4.3 12.2-9.1 38-10.3 55.7l-.7 9.8H120v-2.4c0-4.9 3.1-19.6 5.9-28.3 5.7-17.3 16.8-36.2 28.4-48.1 2.8-2.8 5.3-5.2 5.4-5.2.2 0 3.2 2.4 6.6 5.3zm179.4-.1c11.6 11.9 22.7 30.8 28.4 48.1 2.8 8.7 5.9 23.4 5.9 28.3v2.4h-45.7l-.7-9.8c-1-14.5-3.3-29-7.1-43.6-1.8-7.2-3.6-13.8-3.9-14.7-.5-1.1.9-2.6 4.6-5.2 2.9-2 6.9-5.2 8.8-7.2 1.8-1.9 3.7-3.5 4-3.5.3 0 2.9 2.4 5.7 5.2zm-139.2 23.3c6.9 2.6 19.5 5.7 28.8 7l4.7.6V240h-54l.6-6.3c1.6-18.4 4.5-36.1 7.9-47.5 1.3-4.3 2-5.3 3.3-4.9.9.3 4.9 1.8 8.7 3.2zm99 1.7c5.6 19.7 7.9 37.8 7.9 63.8.1 22-.8 31.6-4.6 49.7l-2.1 10.3H260V192.1l4.8-.6c10.3-1.5 19.9-3.8 28.6-7 5-1.8 9.4-3.4 9.8-3.4.4-.1 1.4 2.3 2.3 5.1zm-138.7 87.5c1.1 12.2 2.1 18.8 4.7 32.5l.7 3.8H134l-2.5-5.1c-5.2-10.1-11.5-33.6-11.5-42.5V260h45.6l1.2 13.7zm73.2 45.8V379l-2.6-1c-8.1-3.1-20-15-27.6-27.6-12.2-20.2-20.6-50.6-23.2-83.7l-.5-6.7H240v59.5zm140-57.1c0 9.1-6.2 32.2-11.5 42.6l-2.5 5h-19c-10.5 0-19-.3-19-.8 0-.4.9-5.2 2-10.7 1-5.5 2.5-16.4 3.2-24.3l1.2-14.2H380v2.4zm-199.1 74.8c3.1 8 9.6 21.1 13.1 26.3 1.4 2.2 3 4.6 3.4 5.3 1.2 1.9-12.7-5.3-21.4-11.1-7.3-5-25.2-21.4-27.1-24.9-.9-1.7 0-1.8 14.3-1.8h15.3l2.4 6.2zm115.7 1.3c-8.4 18.4-23 35.3-34 39.5l-2.6 1v-48h39.9l-3.3 7.5zm54.5-5.7c-1.9 3.5-19.8 19.9-27.1 24.9-4.1 2.7-10.8 6.7-14.8 8.7l-7.3 3.7 3.5-5.6c4.5-6.9 10.6-19.1 13.7-27.3l2.4-6.2h15.3c14.3 0 15.2.1 14.3 1.8z"/>
    <path d="M42 155v21h21v-42H42v21zM43 320.5V422h20V219H43v101.5zM437 334.5V356h21v-43h-21v21.5z"/>
    <path d="M437 410.5V423H138v20l164.3.2c154.2.3 164.4.4 167.4 2 12.1 6.7 12.3 25.2.3 31.5l-4.3 2.3H34.3l-4.3-2.3c-12-6.3-11.8-24.8.3-31.5 2.7-1.4 6.6-1.7 27-2l23.7-.3v-20l-25.7.3-25.8.3-6.7 3.2c-8.1 3.8-14.5 10-18.1 17.4-7.6 15.6-5 31.7 7.3 43.9 6 6.1 12.4 9.6 20.2 11 6.9 1.3 428.7 1.3 435.6 0 7.8-1.4 14.2-4.9 20.2-11 12.3-12.2 14.9-28.4 7.3-43.9-5.7-11.7-18.1-19.9-31.4-20.9l-6.9-.5V398h-20v12.5z"/>
</svg>