<?xml version="1.0" standalone="no"?>
<!DOCTYPE svg PUBLIC "-//W3C//DTD SVG 20010904//EN"
 "http://www.w3.org/TR/2001/REC-SVG-20010904/DTD/svg10.dtd">
<svg version="1.0" xmlns="http://www.w3.org/2000/svg"
 width="700.000000pt" height="700.000000pt" viewBox="0 0 700.000000 700.000000"
 preserveAspectRatio="xMidYMid meet">
<metadata>
Created by potrace 1.14, written by Peter Selinger 2001-2017
</metadata>
<g transform="translate(0.000000,700.000000) scale(0.100000,-0.100000)"
fill="#000000" stroke="none">
<path d="M3278 6995 c-1 -1 -41 -5 -88 -9 -47 -4 -96 -8 -110 -10 -14 -2 -46
-7 -71 -10 -508 -70 -1021 -266 -1458 -559 -58 -38 -110 -74 -115 -78 -6 -5
-49 -39 -96 -76 -169 -133 -363 -316 -479 -453 -25 -30 -54 -64 -64 -75 -44
-48 -247 -328 -247 -339 0 -3 -13 -24 -29 -48 -74 -112 -212 -386 -276 -548
-89 -227 -172 -528 -200 -729 -2 -14 -6 -42 -10 -62 -7 -42 -11 -82 -22 -199
-15 -164 -8 -608 12 -709 2 -12 6 -48 9 -80 5 -48 33 -204 50 -281 100 -432
260 -804 505 -1175 36 -55 68 -102 71 -105 3 -3 23 -30 45 -60 94 -131 315
-370 466 -505 235 -211 508 -392 815 -541 84 -41 156 -74 161 -74 5 0 27 -9
49 -19 53 -26 285 -103 404 -135 114 -30 322 -72 405 -82 33 -3 69 -8 80 -10
122 -25 802 -24 844 0 3 2 30 6 59 10 86 10 121 16 242 42 424 90 829 259
1185 492 603 396 1078 978 1338 1637 47 120 120 337 132 393 2 9 17 78 34 152
16 74 35 171 41 215 6 44 13 91 16 105 26 158 26 618 -1 830 -2 19 -7 58 -11
85 -10 86 -62 334 -90 429 -14 50 -27 98 -29 106 -8 35 -66 194 -108 297 -264
641 -714 1196 -1287 1584 -418 283 -929 486 -1395 555 -27 4 -57 9 -65 10 -8
2 -42 6 -76 9 -33 4 -74 9 -90 11 -32 5 -540 14 -546 9z m492 -869 c14 -2 48
-7 75 -11 101 -13 122 -17 230 -41 845 -187 1555 -793 1875 -1599 56 -141 132
-407 145 -510 3 -16 9 -61 15 -100 15 -105 23 -227 23 -355 1 -114 -10 -328
-17 -339 -2 -3 -7 -28 -10 -56 -34 -310 -185 -715 -380 -1023 -117 -185 -198
-284 -376 -462 -286 -287 -603 -486 -997 -626 -68 -23 -123 -41 -123 -38 0 3
-8 0 -19 -5 -23 -13 -191 -51 -291 -67 -19 -3 -46 -7 -60 -10 -113 -19 -436
-26 -600 -12 -365 31 -731 146 -1075 338 -76 42 -261 168 -345 235 -108 87
-326 305 -413 415 -141 177 -280 409 -357 595 -23 55 -46 109 -51 120 -19 43
-86 260 -94 305 -3 14 -7 36 -10 50 -19 81 -44 241 -51 317 -15 158 -9 503 10
598 2 11 7 43 10 70 23 167 108 461 183 625 69 154 144 293 219 404 21 32 44
66 49 75 6 9 12 18 15 21 3 3 27 34 55 70 100 132 298 333 435 443 206 166
495 330 743 420 114 42 368 113 436 122 14 2 42 6 61 9 78 13 98 16 175 22 44
3 81 8 83 9 5 5 404 -3 432 -9z"/>
<path d="M3488 5775 c-1 -1 -30 -5 -63 -9 -33 -3 -69 -8 -80 -10 -11 -2 -40
-7 -65 -11 -161 -25 -469 -118 -640 -193 -454 -198 -902 -527 -979 -720 -50
-122 91 -308 414 -546 150 -111 457 -303 630 -396 117 -62 142 -79 149 -97 27
-69 28 -635 2 -823 -3 -19 -10 -69 -16 -110 -7 -41 -14 -91 -17 -110 -15 -114
-68 -207 -147 -258 -37 -24 -50 -26 -126 -25 -100 1 -160 22 -297 104 -138 82
-419 282 -463 329 -3 3 -41 34 -85 70 -44 36 -91 75 -105 87 -175 151 -239
194 -292 195 -107 3 -118 -220 -22 -459 144 -356 442 -728 809 -1009 334 -255
781 -467 1011 -479 117 -6 175 35 240 173 26 54 76 237 88 317 27 190 35 262
41 340 3 50 8 115 10 145 3 30 7 170 11 310 l6 255 26 25 c78 75 382 244 647
361 66 29 134 61 150 70 17 10 41 20 55 23 14 2 53 13 87 24 76 24 179 26 235
4 80 -32 136 -106 164 -220 12 -50 12 -287 0 -408 -23 -236 -47 -386 -115
-724 -24 -120 -22 -213 5 -240 96 -96 374 125 566 449 87 147 151 298 217 506
36 117 76 274 87 348 7 49 12 81 19 118 27 165 38 493 22 703 -5 55 -9 102
-11 105 -2 3 -6 29 -10 56 -17 149 -79 304 -134 342 -68 46 -263 20 -497 -65
-103 -38 -167 -63 -180 -72 -5 -4 -37 -17 -70 -31 -33 -13 -132 -59 -220 -102
-88 -43 -162 -79 -165 -79 -3 0 -17 -9 -32 -19 -14 -10 -29 -19 -32 -19 -3 0
-56 -28 -117 -61 l-113 -61 -51 16 c-103 32 -418 201 -586 313 -238 160 -353
248 -398 303 -98 122 -96 246 6 367 112 133 482 320 993 503 163 58 230 95
246 138 15 38 4 61 -47 103 -122 98 -317 148 -605 154 -84 2 -154 2 -156 0z"/>
</g>
</svg>
