<svg xmlns="http://www.w3.org/2000/svg" viewBox="80 34 36.22 36.26">
    <path d="M98.112 34.001c-10 0-18.112 8.09-18.112 18.132 0 10.043 8.112 18.132 18.112 18.132 10 0 18.112-8.09 18.112-18.132C116.154 42.09 108.042 34 98.112 34Zm0 31.801c-7.553 0-13.707-6.137-13.707-13.67 0-7.531 6.155-13.667 13.707-13.667 7.553 0 13.636 6.136 13.636 13.668 0 7.532-6.153 13.67-13.637 13.67h.001Zm3.007-15.622c-.91-.279-1.959-.906-3.007-1.534a10.11 10.11 0 0 1-.909-.627c-.35-.21-.7-.488-.979-.698-1.26-.976-.979-2.093.209-2.86 1.26-.836 2.798-1.463 4.966-2.23.699-.21.978-.559.838-.838 0 0 0-.07-.069-.07 0-.07-.07-.07-.14-.139-.42-.418-1.33-.768-2.868-.837-.628-.07-2.027 0-3.846.558-3.426.976-6.713 3.556-6.782 4.533-.07 1.395 3.495 3.627 6.223 5.09.14.629.14 1.396.14 2.163v.209c0 1.115-.14 2.301-.28 3.068-.208 1.604-1.33 1.884-2.588 1.187-1.328-.698-2.586-1.744-4.405-3.278-.56-.49-.978-.629-1.188-.28 0 .07 0 .07-.07.14-.14.557-.07 1.534.699 2.929.28.558.979 1.744 2.307 3.068 2.449 2.51 6.364 4.185 7.274 3.697 1.258-.559 1.468-4.814 1.468-7.95.07-.07.14-.07.209-.14l.07-.07.07-.07c1.049-.697 2.587-1.464 3.776-1.953 0 0 .07 0 .07-.069.071 0 .071 0 .14-.07.07 0 .14-.07.21-.07h.07c.07 0 .14-.069.21-.069 1.468-.558 2.307.278 2.307 1.674 0 1.534-.209 3.137-.699 5.44-.14.766-.07 1.185.35 1.185h.14c.56-.14 1.329-.698 2.238-2.022.349-.489 1.049-1.744 1.538-3.558.98-3.418.56-7.601-.28-8.16-1.049-.626-4.755 1.187-7.412 2.651Z"
          fill="#1a8cff" fill-rule="evenodd"/>
</svg>