<svg xmlns="http://www.w3.org/2000/svg" viewBox="80 34.001 200 36.264">
    <g>
        <path d="M98.112 34.001c-10 0-18.112 8.09-18.112 18.132 0 10.043 8.112 18.132 18.112 18.132 10 0 18.112-8.09 18.112-18.132C116.154 42.09 108.042 34 98.112 34Zm0 31.801c-7.553 0-13.707-6.137-13.707-13.67 0-7.531 6.155-13.667 13.707-13.667 7.553 0 13.636 6.136 13.636 13.668 0 7.532-6.153 13.67-13.637 13.67h.001Zm3.007-15.622c-.91-.279-1.959-.906-3.007-1.534a10.11 10.11 0 0 1-.909-.627c-.35-.21-.7-.488-.979-.698-1.26-.976-.979-2.093.209-2.86 1.26-.836 2.798-1.463 4.966-2.23.699-.21.978-.559.838-.838 0 0 0-.07-.069-.07 0-.07-.07-.07-.14-.139-.42-.418-1.33-.768-2.868-.837-.628-.07-2.027 0-3.846.558-3.426.976-6.713 3.556-6.782 4.533-.07 1.395 3.495 3.627 6.223 5.09.14.629.14 1.396.14 2.163v.209c0 1.115-.14 2.301-.28 3.068-.208 1.604-1.33 1.884-2.588 1.187-1.328-.698-2.586-1.744-4.405-3.278-.56-.49-.978-.629-1.188-.28 0 .07 0 .07-.07.14-.14.557-.07 1.534.699 2.929.28.558.979 1.744 2.307 3.068 2.449 2.51 6.364 4.185 7.274 3.697 1.258-.559 1.468-4.814 1.468-7.95.07-.07.14-.07.209-.14l.07-.07.07-.07c1.049-.697 2.587-1.464 3.776-1.953 0 0 .07 0 .07-.069.071 0 .071 0 .14-.07.07 0 .14-.07.21-.07h.07c.07 0 .14-.069.21-.069 1.468-.558 2.307.278 2.307 1.674 0 1.534-.209 3.137-.699 5.44-.14.766-.07 1.185.35 1.185h.14c.56-.14 1.329-.698 2.238-2.022.349-.489 1.049-1.744 1.538-3.558.98-3.418.56-7.601-.28-8.16-1.049-.626-4.755 1.187-7.412 2.651Z"
              fill="#1a8cff" fill-rule="evenodd"/>
        <path d="M98.112 35.001c-10 0 9.93 0 0 0Zm33.636 23.502c0 1.674 0 2.022-2.937 2.998l1.399 3.138c5.804-1.255 5.804-2.789 5.804-6.415V42.463h-4.267v16.04h.001Zm13.356-1.256c-1.607 0-2.447-.976-2.657-2.999h8.672s.21-.767.21-1.882c0-3.347-2.098-5.857-6.363-5.857-4.197 0-6.714 2.579-6.714 6.903 0 4.742 2.868 6.835 6.434 6.835 3.077 0 5.734-1.466 6.713-2.023l-1.47-2.58c-1.607.906-3.426 1.604-4.824 1.604Zm-.069-7.74c1.539 0 2.308.906 2.308 2.65h-4.827c.21-1.744 1.05-2.65 2.517-2.65h.002Zm14.616 7.183c-.49 0-1.12-.07-1.12-1.187v-5.648h3.567v-2.997h-3.566v-3.835l-4.056.487v3.348h-1.819v2.998h1.819v5.648c0 3.278 1.328 4.813 4.055 4.813 1.889 0 3.567-.697 4.476-1.116l-1.398-3.068c-.35.14-1.4.558-1.958.558v-.001Zm3.006-10.601h5.106v13.948h4.266V46.09h5.034v-3.626h-14.406v3.626Zm25.245.489c-2.028 0-3.777.976-4.965 1.743v-6.626h-4.126v18.341h4.126V51.32c.77-.698 2.098-1.534 3.356-1.534 1.26 0 1.539.836 1.539 1.952v8.3h4.126v-9.275c-.07-2.582-1.189-4.185-4.056-4.185Zm13.077 0c-4.545 0-6.993 2.51-6.993 6.834 0 4.393 2.517 6.903 6.993 6.903 4.545 0 6.994-2.51 6.994-6.834 0-4.393-2.518-6.903-6.994-6.903Zm0 10.6c-1.958 0-2.798-1.396-2.798-3.697 0-2.3.84-3.695 2.798-3.695 1.958 0 2.867 1.395 2.867 3.695 0 2.302-.909 3.697-2.867 3.697Zm18.112-1.604c-.84.767-2.238 1.534-3.357 1.534-1.258 0-1.538-.837-1.538-1.953v-8.297h-4.126v9.275c0 2.58 1.188 4.184 3.986 4.184 2.028 0 3.776-.906 5.035-1.743v1.464h4.125V46.856h-4.125v8.718Zm15.734-7.322c-1.118-.907-2.447-1.674-4.336-1.674-3.077 0-5.175 2.301-5.175 6.903 0 4.533 2.098 6.835 5.175 6.835 1.889 0 3.218-.697 4.336-1.604v1.396c0 1.463-.63 2.022-2.657 2.022-1.328 0-3.777-.559-5.455-1.047l-.84 3.277c2.24.629 5.036 1.046 7.134 1.046 3.986 0 5.944-1.813 5.944-5.579V46.858h-4.126v1.395-.001Zm0 7.182c-.979 1.046-2.028 1.534-3.006 1.534-1.539 0-2.308-1.255-2.308-3.556s.77-3.557 2.308-3.557c1.048 0 2.098.488 3.006 1.535v4.044Zm16.015-8.857c-2.029 0-3.777.978-4.966 1.744v-6.626h-4.126v18.341h4.126V51.32c.769-.698 2.099-1.534 3.357-1.534s1.538.836 1.538 1.952v8.3h4.127v-9.275c-.07-2.582-1.19-4.185-4.056-4.185v-.001Zm12.796 10.112c-.489 0-1.118-.07-1.118-1.185v-5.648h3.566v-3h-3.566V43.02l-4.056.488v3.348h-1.82v2.998h1.82v5.648c0 3.278 1.328 4.813 4.056 4.813 1.887 0 3.566-.697 4.475-1.116l-1.398-3.068c-.35.14-1.33.558-1.959.558v-.001Zm11.678-4.742c-1.678-.417-3.356-.627-3.356-1.464 0-.418.49-.768 1.468-.768 1.26 0 3.217.559 4.406 1.046l1.609-2.72c-1.4-.626-3.986-1.463-6.294-1.463-3.427 0-5.315 1.743-5.315 4.044 0 2.65 2.378 3.697 4.546 4.255 1.468.348 3.496.697 3.496 1.534 0 .417-.49.836-1.469.836-1.398 0-3.916-.836-5.245-1.464l-1.607 2.86c1.468.836 4.335 1.743 6.992 1.743 3.497 0 5.455-1.605 5.455-4.044 0-2.792-2.447-3.837-4.686-4.395Z"
              fill="#ffffff" fill-rule="evenodd"/>
    </g>
</svg>