<?xml version="1.0" standalone="no"?>
<!DOCTYPE svg PUBLIC "-//W3C//DTD SVG 20010904//EN"
 "http://www.w3.org/TR/2001/REC-SVG-20010904/DTD/svg10.dtd">
<svg version="1.0" xmlns="http://www.w3.org/2000/svg"
 width="481.000000pt" height="500.000000pt" viewBox="0 0 481.000000 500.000000"
 preserveAspectRatio="xMidYMid meet">

<g transform="translate(0.000000,500.000000) scale(0.100000,-0.100000)"
fill="#000000" stroke="none">
<path d="M680 4986 c-117 -25 -217 -105 -268 -214 -23 -49 -27 -70 -27 -152 0
-82 4 -103 26 -150 55 -116 163 -199 284 -218 160 -26 326 60 395 204 l22 44
349 0 349 0 0 -444 0 -443 -107 -6 c-60 -3 -118 -9 -130 -12 l-23 -7 0 272 c0
301 -4 326 -63 356 -61 32 -127 15 -164 -43 -16 -24 -18 -63 -21 -376 l-3
-348 -50 -62 c-109 -134 -162 -308 -141 -460 l11 -82 -32 -24 c-113 -87 -204
-216 -243 -346 -29 -94 -25 -259 7 -352 l25 -73 -188 0 -188 0 0 273 0 273 43
21 c259 127 282 497 39 651 -189 121 -435 53 -536 -146 -91 -179 -18 -406 159
-498 l55 -29 0 -348 c0 -291 2 -353 15 -377 30 -59 39 -60 437 -60 418 0 413
1 402 -73 -5 -34 -18 -54 -72 -109 l-66 -68 -319 0 c-278 0 -321 -2 -343 -16
-52 -35 -69 -110 -37 -165 31 -52 61 -59 269 -59 l189 0 -167 -168 c-92 -92
-172 -180 -178 -195 -14 -39 3 -100 36 -126 14 -11 150 -61 303 -112 l277 -93
93 -277 c51 -153 101 -289 112 -303 25 -32 78 -47 122 -35 23 6 134 110 415
392 l384 384 66 -26 c61 -23 81 -25 207 -25 120 0 149 3 200 22 l59 22 66 -63
c36 -35 211 -206 390 -381 234 -228 334 -319 357 -325 44 -12 97 3 122 35 11
14 61 150 112 303 l93 277 277 93 c153 51 289 101 303 112 33 26 50 87 36 126
-6 15 -170 188 -364 383 -331 332 -354 358 -360 397 -6 41 -5 43 37 72 100 69
193 203 233 336 25 82 25 248 0 329 -39 132 -115 244 -217 323 -64 50 -63 46
-43 141 l4 22 300 0 300 0 0 -442 0 -443 -55 -29 c-72 -37 -147 -120 -176
-194 -31 -79 -31 -195 0 -274 31 -79 106 -159 187 -199 167 -82 372 -26 474
131 47 75 64 141 58 235 -8 128 -83 242 -197 300 l-51 25 0 516 c0 566 0 562
-59 597 -26 15 -70 17 -424 17 l-396 0 -24 53 c-57 124 -174 241 -294 294
l-62 28 -1 208 0 207 318 0 317 0 29 -55 c35 -68 100 -129 174 -163 49 -23 70
-27 152 -27 84 0 102 3 158 29 80 37 161 122 193 203 35 90 32 199 -8 284 -54
116 -135 184 -253 215 -161 41 -341 -40 -420 -189 l-25 -46 -395 -3 c-371 -3
-397 -4 -427 -23 -59 -35 -63 -55 -63 -343 l0 -260 -37 -6 c-21 -4 -45 -9 -53
-11 -9 -3 -25 11 -40 36 -14 23 -49 63 -77 90 l-53 50 0 365 0 364 460 0 c506
0 504 0 535 60 31 60 10 137 -45 165 -43 22 -1086 23 -1129 1 -62 -32 -61 -27
-61 -454 l0 -389 -99 5 c-120 6 -217 -13 -313 -62 l-67 -34 -3 440 -3 440 -37
34 -38 34 -434 0 -434 0 -22 44 c-50 104 -156 183 -274 205 -69 13 -65 13
-136 -3z m145 -256 c83 -51 75 -184 -13 -226 -71 -33 -150 -1 -178 72 -16 41
-16 47 1 90 30 79 118 108 190 64z m3525 -506 c89 -53 76 -195 -22 -232 -98
-38 -199 53 -174 155 4 14 22 41 41 60 28 28 40 33 80 33 26 0 59 -7 75 -16z
m-1868 -585 c119 -26 209 -96 260 -205 53 -113 104 -135 210 -93 39 16 75 22
133 22 104 1 175 -26 251 -95 117 -108 153 -256 100 -411 -23 -66 -26 -83 -16
-111 14 -43 41 -67 114 -101 75 -35 140 -100 174 -173 24 -50 27 -69 27 -162
0 -93 -3 -112 -27 -162 -34 -73 -104 -143 -176 -175 -70 -32 -98 -56 -112 -99
-10 -28 -7 -45 15 -111 53 -154 21 -298 -92 -404 -80 -76 -148 -104 -253 -103
-64 0 -100 6 -144 23 -65 26 -115 24 -148 -6 -10 -9 -37 -52 -60 -95 -61 -117
-140 -177 -268 -200 -45 -9 -78 -9 -126 -1 -129 22 -210 82 -272 201 -23 43
-50 86 -60 95 -33 30 -83 32 -148 6 -88 -34 -209 -33 -287 3 -76 36 -160 117
-194 187 -41 85 -44 192 -8 294 22 66 25 83 15 111 -14 43 -42 67 -112 99 -72
32 -142 102 -176 175 -24 50 -27 69 -27 162 0 93 3 112 27 162 34 73 99 138
174 173 73 34 100 58 114 101 10 28 7 45 -15 111 -37 105 -33 209 10 297 37
74 128 158 204 188 78 30 197 30 265 0 104 -47 162 -24 210 82 77 169 240 252
418 215z m-2030 -577 c57 -33 73 -124 33 -185 -9 -14 -37 -34 -61 -43 -41 -16
-47 -16 -89 0 -79 31 -109 120 -64 192 11 19 21 34 22 34 1 0 20 7 42 14 43
16 74 12 117 -12z m4046 -1239 c31 -19 62 -72 62 -106 0 -36 -23 -80 -55 -105
-83 -66 -205 -6 -205 100 0 108 107 168 198 111z m-3285 -539 c75 -115 184
-199 317 -244 73 -25 238 -38 305 -23 39 9 40 8 71 -37 l32 -45 -286 -287
c-158 -159 -290 -288 -294 -288 -3 0 -38 96 -78 214 -48 145 -78 220 -94 235
-13 13 -108 50 -231 91 -114 38 -210 72 -213 75 -4 3 86 98 198 211 173 173
207 202 215 188 6 -9 32 -50 58 -90z m2857 -306 c0 -3 -96 -38 -213 -77 -134
-45 -221 -79 -235 -93 -14 -14 -48 -101 -93 -235 -39 -117 -74 -213 -78 -213
-4 0 -137 127 -296 283 l-288 282 34 51 c34 50 35 50 74 41 72 -16 233 -3 312
25 142 50 259 149 339 285 l37 64 204 -203 c112 -111 203 -206 203 -210z"/>
<path d="M2191 3134 c-159 -43 -259 -102 -387 -229 -83 -83 -108 -116 -147
-191 -75 -147 -100 -244 -100 -399 -1 -185 40 -328 137 -473 159 -239 425
-382 711 -382 572 0 982 552 814 1097 -20 63 -47 93 -97 106 -33 8 -85 -9
-110 -36 -36 -39 -41 -74 -21 -157 23 -92 24 -225 4 -305 -58 -227 -241 -403
-467 -449 -97 -20 -149 -20 -246 0 -119 24 -214 75 -303 164 -120 120 -179
261 -179 430 0 265 163 491 414 575 41 14 84 25 94 25 30 0 79 46 92 85 15 46
-1 96 -41 130 -36 29 -83 32 -168 9z"/>
<path d="M2723 3065 c-39 -17 -73 -68 -73 -111 0 -68 82 -136 146 -120 15 4
42 22 61 41 27 27 33 40 33 78 0 53 -27 93 -76 113 -41 17 -50 17 -91 -1z"/>
</g>
</svg>
