<?xml version="1.0" standalone="no"?>
<!DOCTYPE svg PUBLIC "-//W3C//DTD SVG 20010904//EN"
 "http://www.w3.org/TR/2001/REC-SVG-20010904/DTD/svg10.dtd">
<svg version="1.0" xmlns="http://www.w3.org/2000/svg"
 width="500.000000pt" height="500.000000pt" viewBox="0 0 500.000000 500.000000"
 preserveAspectRatio="xMidYMid meet">

<g transform="translate(0.000000,500.000000) scale(0.100000,-0.100000)"
fill="#000000" stroke="none">
<path d="M2439 4990 c-114 -19 -83 9 -1261 -1168 -1054 -1054 -1109 -1110
-1139 -1175 -45 -98 -45 -196 0 -294 30 -65 85 -121 1139 -1175 1054 -1054
1110 -1109 1175 -1139 59 -27 80 -32 147 -32 67 0 88 5 147 32 65 30 121 85
1175 1139 1187 1188 1148 1146 1168 1269 11 67 -3 149 -37 218 -20 39 -258
283 -1131 1157 -1043 1043 -1111 1109 -1172 1137 -72 32 -142 43 -211 31z m98
-230 c43 -16 2210 -2187 2224 -2227 7 -24 7 -42 0 -65 -14 -42 -2181 -2212
-2225 -2228 -16 -6 -43 -8 -60 -4 -42 8 -2220 2182 -2237 2231 -7 24 -7 42 0
66 8 23 329 350 1103 1124 601 601 1104 1097 1118 1102 33 13 43 13 77 1z"/>
<path d="M2460 4273 c-37 -7 -206 -180 -215 -221 -9 -45 20 -102 66 -126 59
-32 99 -14 201 92 95 98 108 128 84 185 -22 54 -76 81 -136 70z"/>
<path d="M2737 3736 c-15 -8 -297 -279 -627 -601 -435 -426 -602 -596 -610
-620 -15 -45 7 -98 52 -125 31 -19 50 -20 281 -20 l247 0 0 -512 c0 -491 1
-514 20 -545 10 -18 33 -39 51 -48 66 -34 76 -27 397 278 163 155 439 417 612
581 173 165 320 307 327 316 12 17 17 48 15 87 -1 12 -16 36 -34 53 l-32 32
-268 -3 -268 -4 -2 537 -3 538 -30 30 c-37 37 -88 47 -128 26z m-67 -831 c0
-496 -1 -488 67 -520 33 -16 55 -17 195 -11 87 4 158 5 158 2 0 -2 -174 -170
-387 -372 l-388 -368 -5 444 c-4 336 -8 451 -18 467 -25 45 -59 53 -232 53
-88 0 -160 3 -159 8 2 10 752 741 762 742 4 0 7 -200 7 -445z"/>
<path d="M1405 3276 c-16 -8 -198 -182 -402 -388 l-373 -374 0 -49 0 -49 360
-361 360 -360 49 0 c39 0 55 5 75 24 32 30 46 76 34 116 -5 20 -104 126 -303
325 -162 162 -295 300 -295 305 0 5 146 156 325 335 325 325 325 326 325 368
0 52 -23 90 -67 108 -40 17 -50 17 -88 0z"/>
<path d="M3539 3217 c-41 -27 -60 -78 -48 -122 6 -20 105 -126 304 -325 162
-162 295 -300 295 -305 0 -5 -133 -143 -295 -305 -199 -199 -298 -305 -303
-325 -12 -40 2 -86 34 -116 20 -19 36 -24 75 -24 l49 0 360 360 360 361 0 49
0 49 -347 349 c-192 192 -360 355 -375 363 -38 20 -70 17 -109 -9z"/>
<path d="M2575 988 c-31 -17 -185 -170 -201 -200 -24 -47 -18 -102 16 -136 31
-32 64 -42 107 -34 30 6 206 170 229 214 50 96 -58 207 -151 156z"/>
</g>
</svg>
