<?xml version="1.0" standalone="no"?>
<!DOCTYPE svg PUBLIC "-//W3C//DTD SVG 20010904//EN"
 "http://www.w3.org/TR/2001/REC-SVG-20010904/DTD/svg10.dtd">
<svg version="1.0" xmlns="http://www.w3.org/2000/svg"
 width="500.000000pt" height="500.000000pt" viewBox="0 0 500.000000 500.000000"
 preserveAspectRatio="xMidYMid meet">

<g transform="translate(0.000000,500.000000) scale(0.100000,-0.100000)"
fill="#000000" stroke="none">
<path d="M2321 4989 c-142 -10 -342 -44 -381 -64 -36 -19 -60 -62 -60 -109 0
-43 47 -102 88 -111 15 -3 81 4 147 16 151 27 473 37 626 20 340 -39 679 -155
949 -326 l55 -35 -1027 0 -1028 0 0 120 c0 139 -12 179 -62 210 -32 20 -44 21
-418 18 -384 -3 -385 -3 -450 -29 -168 -65 -286 -188 -341 -359 -19 -56 -22
-96 -27 -288 l-4 -224 -38 -62 c-241 -397 -374 -943 -341 -1406 11 -153 23
-190 71 -215 49 -25 95 -19 137 18 l36 33 2 285 c2 338 19 461 103 719 l27 85
5 -1215 c5 -1143 6 -1218 24 -1270 29 -89 76 -167 135 -229 62 -64 121 -102
220 -140 l66 -26 1239 -5 1238 -5 -98 -32 c-146 -48 -288 -80 -436 -99 -179
-22 -492 -15 -663 15 -66 12 -132 19 -147 16 -41 -9 -88 -68 -88 -111 0 -47
24 -90 60 -109 43 -22 238 -53 410 -65 484 -32 1002 93 1416 341 l82 49 195 0
c108 0 220 5 249 11 159 34 282 163 308 325 6 32 10 143 10 246 l0 188 40 65
c242 396 372 934 340 1412 -27 406 -148 805 -338 1116 -38 61 -39 65 -44 182
-9 179 -51 272 -161 355 -65 49 -128 71 -227 77 -75 5 -89 9 -115 33 -52 47
-186 145 -280 204 -349 219 -742 346 -1170 376 -154 11 -169 11 -334 -1z
m-881 -1999 l0 -1500 -292 0 c-334 0 -356 -4 -500 -78 -5 -2 -8 637 -8 1420
l0 1423 24 50 c43 93 105 147 196 171 30 9 135 13 313 13 l267 1 0 -1500z
m2858 1122 c67 -48 62 86 62 -1724 0 -1612 0 -1644 -20 -1675 -10 -18 -34 -40
-52 -50 -31 -17 -115 -18 -1723 -18 l-1690 0 -67 33 c-105 51 -158 132 -166
248 -7 103 16 163 87 235 89 88 93 89 505 89 393 0 401 1 438 71 17 32 18 97
18 1426 l0 1393 1288 -2 1287 -3 33 -23z m401 -1120 c85 -378 65 -820 -53
-1175 l-34 -102 0 785 0 785 34 -102 c18 -56 43 -142 53 -191z"/>
<path d="M975 4211 c-11 -5 -31 -21 -45 -36 l-25 -27 -3 -1146 c-2 -845 1
-1154 9 -1175 25 -60 123 -89 177 -51 55 38 52 -21 52 1219 l0 1145 -33 36
c-34 37 -92 53 -132 35z"/>
<path d="M3688 3852 c-80 -49 -69 -172 18 -208 43 -18 125 -18 169 0 40 17 75
68 75 109 0 40 -26 84 -60 102 -41 21 -166 20 -202 -3z"/>
<path d="M2335 3626 c-98 -25 -167 -78 -216 -168 -32 -59 -34 -69 -34 -153 0
-71 5 -100 22 -137 30 -66 96 -133 162 -165 75 -37 200 -40 273 -6 179 82 253
296 160 466 -68 127 -229 198 -367 163z m140 -261 c38 -37 35 -95 -6 -129 -41
-35 -83 -34 -120 3 -33 33 -37 67 -14 111 17 33 27 38 78 39 28 1 45 -6 62
-24z"/>
<path d="M3058 3404 c-51 -27 -72 -100 -45 -154 7 -13 28 -35 46 -47 34 -23
35 -23 408 -23 414 0 426 2 463 62 25 42 25 85 1 122 -37 56 -34 55 -456 55
-326 0 -394 -2 -417 -15z"/>
<path d="M3723 2953 c-32 -6 -80 -57 -88 -93 -9 -42 11 -96 46 -121 41 -29
140 -37 191 -16 72 30 98 114 55 178 -33 49 -113 70 -204 52z"/>
<path d="M2309 2685 c-150 -48 -251 -198 -235 -349 8 -83 46 -155 112 -215
128 -117 310 -117 439 0 78 72 109 141 109 244 0 97 -29 170 -94 235 -83 83
-224 119 -331 85z m141 -240 c80 -42 47 -167 -45 -167 -92 0 -126 124 -46 167
34 18 55 18 91 0z"/>
<path d="M3063 2475 c-36 -16 -73 -68 -73 -103 0 -38 30 -92 61 -107 43 -23
805 -22 837 1 53 37 67 130 25 176 -40 46 -61 48 -450 48 -293 -1 -375 -4
-400 -15z"/>
<path d="M3703 1985 c-60 -26 -87 -98 -58 -159 24 -50 59 -66 145 -66 82 0
123 17 145 60 32 62 4 139 -60 166 -43 18 -130 18 -172 -1z"/>
<path d="M2290 1728 c-77 -30 -160 -114 -189 -193 -46 -121 -14 -264 80 -355
210 -204 561 -54 561 240 -1 132 -67 236 -192 300 -66 34 -185 38 -260 8z
m163 -230 c34 -18 46 -39 47 -81 0 -27 -7 -45 -25 -62 -27 -28 -88 -34 -116
-12 -47 36 -51 97 -10 138 31 31 67 37 104 17z"/>
<path d="M3074 1530 c-63 -26 -92 -111 -58 -170 36 -60 34 -60 463 -60 l391 0
38 34 c33 31 37 39 37 85 0 44 -4 55 -33 83 l-32 33 -393 2 c-215 1 -401 -2
-413 -7z"/>
<path d="M3703 1105 c-85 -37 -94 -161 -14 -208 38 -22 160 -23 201 -2 34 18
60 62 60 102 0 41 -35 92 -75 109 -43 18 -130 18 -172 -1z"/>
</g>
</svg>
