<?xml version="1.0" standalone="no"?>
<!DOCTYPE svg PUBLIC "-//W3C//DTD SVG 20010904//EN"
 "http://www.w3.org/TR/2001/REC-SVG-20010904/DTD/svg10.dtd">
<svg version="1.0" xmlns="http://www.w3.org/2000/svg"
 width="500.000000pt" height="500.000000pt" viewBox="0 0 500.000000 500.000000"
 preserveAspectRatio="xMidYMid meet">

<g transform="translate(0.000000,500.000000) scale(0.100000,-0.100000)"
fill="#000000" stroke="none">
<path d="M505 4994 c-11 -2 -45 -9 -75 -15 -188 -38 -361 -210 -411 -409 -21
-82 -21 -4058 0 -4140 50 -198 213 -361 411 -411 82 -21 4058 -21 4140 0 198
50 361 213 411 411 21 82 21 4058 0 4140 -48 192 -198 346 -396 409 -45 14
-262 16 -2055 17 -1103 1 -2014 0 -2025 -2z m4052 -293 c65 -29 124 -91 149
-157 18 -48 19 -106 19 -2044 0 -1938 -1 -1996 -19 -2044 -25 -66 -84 -128
-149 -157 l-52 -24 -2005 0 -2005 0 -52 24 c-65 29 -124 91 -149 157 -18 48
-19 106 -19 2044 0 1933 1 1997 19 2044 34 88 110 153 203 175 22 5 886 8
2023 8 l1985 -2 52 -24z"/>
<path d="M802 4433 c-35 -7 -89 -66 -96 -107 -9 -45 11 -94 53 -129 l33 -27
251 0 c283 0 297 3 330 73 23 48 21 88 -6 128 -43 64 -65 69 -317 68 -124 -1
-235 -4 -248 -6z"/>
<path d="M1830 4422 c-73 -36 -100 -123 -60 -189 37 -61 53 -64 335 -61 l254
3 30 29 c71 68 55 177 -32 217 -37 16 -68 19 -267 19 -195 0 -230 -2 -260 -18z"/>
<path d="M3543 4421 c-50 -23 -73 -62 -73 -124 0 -79 65 -133 149 -124 129 14
156 194 38 248 -23 10 -49 19 -57 19 -8 0 -34 -9 -57 -19z"/>
<path d="M4115 4426 c-50 -22 -85 -71 -85 -119 0 -151 197 -188 257 -48 43
100 -72 212 -172 167z"/>
<path d="M993 3856 c-141 -45 -254 -175 -283 -326 -13 -70 -13 -900 0 -970 25
-130 112 -246 229 -303 l66 -32 1495 0 1495 0 66 32 c117 57 204 173 229 303
13 70 13 900 0 971 -24 128 -119 252 -237 307 l-58 27 -1480 2 c-1204 1 -1488
-1 -1522 -11z m2978 -283 c59 -50 59 -51 59 -528 0 -477 0 -478 -59 -528 l-33
-27 -1438 0 -1438 0 -33 27 c-59 50 -59 51 -59 528 0 477 0 478 59 528 l33 27
1438 0 1438 0 33 -27z"/>
<path d="M1323 3170 c-45 -27 -66 -64 -66 -116 0 -53 24 -91 74 -116 32 -17
108 -18 1164 -18 1056 0 1132 1 1165 18 69 34 94 131 50 192 -45 64 32 60
-1217 60 -1110 0 -1139 -1 -1170 -20z"/>
<path d="M889 1914 c-62 -19 -131 -81 -160 -146 l-24 -53 0 -470 0 -470 24
-53 c14 -30 43 -69 68 -92 81 -71 73 -70 663 -70 607 0 589 -2 677 85 83 84
83 84 83 600 0 516 0 516 -83 600 -88 87 -70 85 -676 84 -424 0 -535 -3 -572
-15z m1061 -669 l0 -415 -490 0 -490 0 0 415 0 415 490 0 490 0 0 -415z"/>
<path d="M2724 1646 c-91 -40 -107 -151 -33 -222 l30 -29 749 0 748 0 27 25
c58 53 66 122 22 184 -40 57 -23 56 -799 56 -574 -1 -719 -3 -744 -14z"/>
<path d="M2724 1090 c-31 -12 -72 -66 -80 -105 -8 -42 19 -100 59 -129 27 -20
42 -21 433 -24 449 -3 456 -2 495 62 26 43 25 115 -2 150 -44 56 -43 56 -481
55 -222 0 -412 -4 -424 -9z"/>
<path d="M4093 1081 c-60 -38 -81 -122 -46 -182 25 -42 93 -73 140 -64 47 8
98 61 107 109 20 107 -109 195 -201 137z"/>
</g>
</svg>
