<svg xmlns="http://www.w3.org/2000/svg" viewBox="0 0 960 340" role="img" aria-labelledby="m3-trail-title">
  <title id="m3-trail-title">Mia's Module 3 artifact trail: a one-page Product Brief to a no-go list to an outcome rewrite to a passed quality check</title>
  <defs>
    <style>
      .h      { font-family: "Caveat", "Patrick Hand", cursive; font-size: 25px; fill: #1a1a1a; font-weight: 700; }
      .foot   { font-family: "Caveat", "Patrick Hand", cursive; font-size: 16px; fill: #666; font-style: italic; }
      .chip   { font-family: "Caveat", "Patrick Hand", cursive; font-size: 15px; fill: #ffffff; font-weight: 700; }
      .title  { font-family: "Caveat", "Patrick Hand", cursive; font-size: 19px; fill: #1a1a1a; font-weight: 700; }
      .gbig   { font-family: "Caveat", "Patrick Hand", cursive; font-size: 27px; fill: #2e7d32; font-weight: 700; }
      .note   { font-family: "Caveat", "Patrick Hand", cursive; font-size: 13px; fill: #555; }
      .card   { fill: #fffdf8; stroke: #1a1a1a; stroke-width: 2; }
      .pay    { fill: #fbe9ff; stroke: #a855f7; stroke-width: 2.5; }
      .chipbg { fill: #cc342d; }
    </style>
    <marker id="arw3" markerWidth="9" markerHeight="9" refX="6" refY="3" orient="auto">
      <path d="M0,0 L6,3 L0,6" fill="none" stroke="#999" stroke-width="1.6"/>
    </marker>
  </defs>

  <text x="480" y="38" class="h" text-anchor="middle">What Mia produced in Module 3</text>

  <!-- Card 1: One-page Brief -->
  <g transform="rotate(-0.4 120 182)">
    <rect x="16" y="90" width="208" height="185" rx="12" class="card"/>
    <rect x="87" y="100" width="66" height="26" rx="13" class="chipbg"/>
    <text x="120" y="118" class="chip" text-anchor="middle">3.1</text>
    <text x="120" y="153" class="title" text-anchor="middle">One-page</text>
    <text x="120" y="175" class="title" text-anchor="middle">Product Brief</text>
    <text x="120" y="216" class="note" text-anchor="middle">Section 1 copied verbatim</text>
    <text x="120" y="250" class="note" text-anchor="middle">from the problem statement</text>
  </g>

  <!-- Card 2: No-go list -->
  <g transform="rotate(0.4 360 182)">
    <rect x="256" y="90" width="208" height="185" rx="12" class="card"/>
    <rect x="327" y="100" width="66" height="26" rx="13" class="chipbg"/>
    <text x="360" y="118" class="chip" text-anchor="middle">3.1</text>
    <text x="360" y="153" class="title" text-anchor="middle">No-go</text>
    <text x="360" y="175" class="title" text-anchor="middle">list</text>
    <text x="360" y="216" class="note" text-anchor="middle">longer than the build list</text>
    <text x="360" y="250" class="note" text-anchor="middle">scope locked before code</text>
  </g>

  <!-- Card 3: Outcome rewrite -->
  <g transform="rotate(-0.3 600 182)">
    <rect x="496" y="90" width="208" height="185" rx="12" class="card"/>
    <rect x="567" y="100" width="66" height="26" rx="13" class="chipbg"/>
    <text x="600" y="118" class="chip" text-anchor="middle">3.2</text>
    <text x="600" y="153" class="title" text-anchor="middle">Outcome</text>
    <text x="600" y="175" class="title" text-anchor="middle">rewrite</text>
    <text x="600" y="216" class="note" text-anchor="middle">features to parent outcomes</text>
    <text x="600" y="250" class="note" text-anchor="middle">every line from a transcript</text>
  </g>

  <!-- Card 4: Quality check (payoff) -->
  <g transform="rotate(0.4 840 182)">
    <rect x="736" y="90" width="208" height="185" rx="12" class="pay"/>
    <rect x="807" y="100" width="66" height="26" rx="13" class="chipbg"/>
    <text x="840" y="118" class="chip" text-anchor="middle">3.2</text>
    <text x="840" y="153" class="title" text-anchor="middle">Quality</text>
    <text x="840" y="175" class="title" text-anchor="middle">check</text>
    <text x="840" y="218" class="gbig" text-anchor="middle">PASS</text>
    <text x="840" y="252" class="note" text-anchor="middle">1 fail · 1 fix · 1 clean run</text>
  </g>

  <!-- Arrows -->
  <line x1="227" y1="182" x2="251" y2="182" stroke="#999" stroke-width="1.6" marker-end="url(#arw3)"/>
  <line x1="467" y1="182" x2="491" y2="182" stroke="#999" stroke-width="1.6" marker-end="url(#arw3)"/>
  <line x1="707" y1="182" x2="731" y2="182" stroke="#999" stroke-width="1.6" marker-end="url(#arw3)"/>

  <text x="480" y="312" class="foot" text-anchor="middle">One evening and one lunch break - the fuzziness caught on paper, not in a build.</text>
</svg>
