<?xml version="1.0" encoding="UTF-8"?>
<svg xmlns="http://www.w3.org/2000/svg" viewBox="0 0 1030 560" font-family='"Segoe UI", system-ui, -apple-system, sans-serif'>
  <defs>
    <filter id="rough" x="-2%" y="-2%" width="104%" height="104%">
      <feTurbulence type="fractalNoise" baseFrequency="0.025" numOctaves="2" seed="9"/>
      <feDisplacementMap in="SourceGraphic" scale="2"/>
    </filter>
    <marker id="arr2" viewBox="0 0 10 10" refX="9" refY="5" markerWidth="8" markerHeight="8" orient="auto-start-reverse">
      <path d="M 0 0 L 10 5 L 0 10 z" fill="#1a1a1a"/>
    </marker>
  </defs>
  <rect width="1030" height="560" fill="#fafaf7"/>

  <!-- Title -->
  <text x="515" y="38" font-size="32" text-anchor="middle" fill="#1a1a1a" font-weight="bold">Shed - House - Skyscraper</text>
  <text x="515" y="62" font-size="20" text-anchor="middle" fill="#555">Different buildings, different talent, different cost ceilings. Pick the one your real load needs.</text>

  <!-- Ground line -->
  <line x1="40" y1="440" x2="990" y2="440" stroke="#1a1a1a" stroke-width="2" stroke-dasharray="4 4"/>

  <!-- SHED (Vibe-coded) -->
  <g filter="url(#rough)">
    <polygon points="120,440 120,360 180,330 240,360 240,440" fill="#fff5f5" stroke="#cc342d" stroke-width="2.5"/>
    <line x1="180" y1="330" x2="180" y2="440" stroke="#cc342d" stroke-width="1.5"/>
    <rect x="155" y="395" width="20" height="45" fill="#fafaf7" stroke="#cc342d" stroke-width="1.5"/>
  </g>
  <text x="180" y="464" font-size="22" text-anchor="middle" fill="#cc342d" font-weight="bold">The shed</text>
  <text x="180" y="484" font-size="20" text-anchor="middle" fill="#1a1a1a">Lovable + Supabase + Stripe</text>
  <text x="180" y="502" font-size="18" text-anchor="middle" fill="#555">1 founder - ~$87 / mo - 4 weeks</text>

  <!-- HOUSE (Fractional CTO + small team) -->
  <g filter="url(#rough)">
    <rect x="380" y="290" width="200" height="150" fill="#f0f9f0" stroke="#2e7d32" stroke-width="2.5"/>
    <polygon points="380,290 480,220 580,290" fill="#f0f9f0" stroke="#2e7d32" stroke-width="2.5"/>
    <rect x="395" y="320" width="40" height="40" fill="#fafaf7" stroke="#2e7d32" stroke-width="1.5"/>
    <rect x="455" y="320" width="40" height="40" fill="#fafaf7" stroke="#2e7d32" stroke-width="1.5"/>
    <rect x="515" y="320" width="40" height="40" fill="#fafaf7" stroke="#2e7d32" stroke-width="1.5"/>
    <rect x="455" y="380" width="40" height="60" fill="#a3621e" stroke="#2e7d32" stroke-width="1.5"/>
  </g>
  <text x="480" y="464" font-size="22" text-anchor="middle" fill="#2e7d32" font-weight="bold">The house</text>
  <text x="480" y="484" font-size="20" text-anchor="middle" fill="#1a1a1a">Fractional CTO + 1-2 engineers</text>
  <text x="480" y="502" font-size="18" text-anchor="middle" fill="#555">Rails / Django / Laravel - ~$10-25K / mo</text>

  <!-- SKYSCRAPER (Hired team) -->
  <g filter="url(#rough)">
    <rect x="780" y="120" width="120" height="320" fill="#e8f4f8" stroke="#0277bd" stroke-width="2.5"/>
    <line x1="780" y1="160" x2="900" y2="160" stroke="#0277bd" stroke-width="1.2"/>
    <line x1="780" y1="200" x2="900" y2="200" stroke="#0277bd" stroke-width="1.2"/>
    <line x1="780" y1="240" x2="900" y2="240" stroke="#0277bd" stroke-width="1.2"/>
    <line x1="780" y1="280" x2="900" y2="280" stroke="#0277bd" stroke-width="1.2"/>
    <line x1="780" y1="320" x2="900" y2="320" stroke="#0277bd" stroke-width="1.2"/>
    <line x1="780" y1="360" x2="900" y2="360" stroke="#0277bd" stroke-width="1.2"/>
    <line x1="780" y1="400" x2="900" y2="400" stroke="#0277bd" stroke-width="1.2"/>
    <rect x="795" y="135" width="14" height="14" fill="#fafaf7"/>
    <rect x="815" y="135" width="14" height="14" fill="#fafaf7"/>
    <rect x="835" y="135" width="14" height="14" fill="#fafaf7"/>
    <rect x="855" y="135" width="14" height="14" fill="#fafaf7"/>
    <rect x="875" y="135" width="14" height="14" fill="#fafaf7"/>
    <polygon points="780,120 840,90 900,120" fill="#0277bd" stroke="#0277bd" stroke-width="2"/>
  </g>
  <text x="840" y="464" font-size="22" text-anchor="middle" fill="#0277bd" font-weight="bold">The skyscraper</text>
  <text x="840" y="484" font-size="20" text-anchor="middle" fill="#1a1a1a">Hired engineering team</text>
  <text x="840" y="502" font-size="18" text-anchor="middle" fill="#555">SOC2 / HIPAA - audit-ready - ~$50K+ / mo</text>

  <!-- Arrows between -->
  <line x1="245" y1="395" x2="375" y2="365" stroke="#1a1a1a" stroke-width="2" marker-end="url(#arr2)"/>
  <text x="305" y="368" font-size="18" fill="#1a1a1a" font-style="italic">2 ceiling signals fire</text>

  <line x1="585" y1="280" x2="775" y2="220" stroke="#1a1a1a" stroke-width="2" marker-end="url(#arr2)"/>
  <text x="650" y="238" font-size="18" fill="#1a1a1a" font-style="italic">audit + scale</text>

  <!-- Footnote -->
  <text x="515" y="540" font-size="18" text-anchor="middle" fill="#a3621e" font-style="italic">Most pre-seed B2B SaaS lives in the shed. The 20% that outgrows it is what this post is about.</text>
</svg>
